<svg width="25" height="20" viewBox="0 0 25 20" fill="none" xmlns="http://www.w3.org/2000/svg">
<path d="M22.9167 0H2.08333C0.93316 0 0 0.93316 0 2.08333V17.3611C0 18.5113 0.93316 19.4444 2.08333 19.4444H22.9167C24.0668 19.4444 25 18.5113 25 17.3611V2.08333C25 0.93316 24.0668 0 22.9167 0ZM7.63889 4.16667C9.17101 4.16667 10.4167 5.41233 10.4167 6.94444C10.4167 8.47656 9.17101 9.72222 7.63889 9.72222C6.10677 9.72222 4.86111 8.47656 4.86111 6.94444C4.86111 5.41233 6.10677 4.16667 7.63889 4.16667ZM12.5 14.4444C12.5 14.9045 12.066 15.2778 11.5278 15.2778H3.75C3.21181 15.2778 2.77778 14.9045 2.77778 14.4444V13.6111C2.77778 12.2309 4.0842 11.1111 5.69444 11.1111H5.91146C6.44531 11.3325 7.02691 11.4583 7.63889 11.4583C8.25087 11.4583 8.83681 11.3325 9.36632 11.1111H9.58333C11.1936 11.1111 12.5 12.2309 12.5 13.6111V14.4444ZM22.2222 12.1528C22.2222 12.3437 22.066 12.5 21.875 12.5H15.625C15.434 12.5 15.2778 12.3437 15.2778 12.1528V11.4583C15.2778 11.2674 15.434 11.1111 15.625 11.1111H21.875C22.066 11.1111 22.2222 11.2674 22.2222 11.4583V12.1528ZM22.2222 9.375C22.2222 9.56597 22.066 9.72222 21.875 9.72222H15.625C15.434 9.72222 15.2778 9.56597 15.2778 9.375V8.68055C15.2778 8.48958 15.434 8.33333 15.625 8.33333H21.875C22.066 8.33333 22.2222 8.48958 22.2222 8.68055V9.375ZM22.2222 6.59722C22.2222 6.78819 22.066 6.94444 21.875 6.94444H15.625C15.434 6.94444 15.2778 6.78819 15.2778 6.59722V5.90278C15.2778 5.7118 15.434 5.55555 15.625 5.55555H21.875C22.066 5.55555 22.2222 5.7118 22.2222 5.90278V6.59722Z" fill="#275563"/>
</svg>
