<svg width="136" height="125" viewBox="0 0 136 125" fill="none" xmlns="http://www.w3.org/2000/svg">
<path d="M70.839 113.299V113.792C70.7111 116.379 69.5935 118.817 67.7176 120.602C65.8417 122.388 63.3511 123.384 60.7614 123.384C58.1717 123.384 55.6811 122.388 53.8052 120.602C51.9293 118.817 50.8117 116.379 50.6838 113.792C50.6838 113.632 50.6838 113.466 50.6838 113.299C50.6838 113.133 50.6838 112.887 50.6838 112.683C50.8393 110.118 51.9681 107.708 53.8397 105.946C55.7114 104.185 58.1849 103.204 60.7552 103.204C63.3256 103.204 65.7991 104.185 67.6707 105.946C69.5424 107.708 70.6712 110.118 70.8267 112.683C70.8349 112.889 70.839 113.094 70.839 113.299Z" fill="#ED5958"/>
<path d="M110.484 113.299V113.792C110.356 116.379 109.239 118.817 107.363 120.602C105.487 122.388 102.996 123.384 100.407 123.384C97.8169 123.384 95.3264 122.388 93.4505 120.602C91.5746 118.817 90.457 116.379 90.329 113.792C90.329 113.632 90.329 113.466 90.329 113.299C90.329 113.133 90.329 112.887 90.329 112.683C90.4845 110.118 91.6133 107.708 93.485 105.946C95.3567 104.185 97.8302 103.204 100.401 103.204C102.971 103.204 105.444 104.185 107.316 105.946C109.188 107.708 110.316 110.118 110.472 112.683C110.48 112.889 110.484 113.094 110.484 113.299Z" fill="#ED5958"/>
<path d="M70.839 114.297C70.7334 116.538 69.8788 118.679 68.412 120.377H53.1231C51.6564 118.679 50.8018 116.538 50.6961 114.297H70.839Z" fill="#ED5958"/>
<path d="M110.472 114.297C110.366 116.538 109.512 118.679 108.045 120.377H92.7437C91.277 118.679 90.4224 116.538 90.3167 114.297H110.472Z" fill="#ED5958"/>
<path d="M29.2042 69.3483C28.8881 69.3405 28.5871 69.2114 28.3635 68.9878C28.1399 68.7643 28.0108 68.4632 28.003 68.1471V63.0898C28.0247 62.7869 28.1604 62.5035 28.3827 62.2966C28.605 62.0896 28.8974 61.9746 29.2011 61.9746C29.5048 61.9746 29.7972 62.0896 30.0195 62.2966C30.2418 62.5035 30.3775 62.7869 30.3992 63.0898V68.1471C30.3915 68.4622 30.2633 68.7623 30.041 68.9858C29.8187 69.2092 29.5192 69.3389 29.2042 69.3483Z" fill="white"/>
<path d="M29.2042 60.0531C28.8881 60.0452 28.5871 59.9162 28.3635 59.6926C28.1399 59.469 28.0108 59.168 28.003 58.8519V56.1169C28.0247 55.814 28.1604 55.5305 28.3827 55.3236C28.605 55.1167 28.8974 55.0016 29.2011 55.0016C29.5048 55.0016 29.7972 55.1167 30.0195 55.3236C30.2418 55.5305 30.3775 55.814 30.3992 56.1169V58.8519C30.3915 59.167 30.2633 59.4671 30.041 59.6905C29.8187 59.914 29.5192 60.0437 29.2042 60.0531Z" fill="white"/>
<path d="M134.034 26.7217L126.642 97.6039C126.499 98.9763 125.854 100.248 124.83 101.173C123.807 102.099 122.478 102.613 121.098 102.618H40.5939L17.8638 26.7217H134.034Z" fill="#ED5958"/>
<path d="M60.7737 124.165C58.3797 124.165 56.0395 123.456 54.049 122.126C52.0585 120.795 50.507 118.905 49.5909 116.693C48.6747 114.482 48.435 112.048 48.9021 109.7C49.3691 107.352 50.5219 105.195 52.2147 103.502C53.9076 101.809 56.0643 100.657 58.4123 100.19C60.7603 99.7225 63.1941 99.9622 65.4058 100.878C67.6176 101.794 69.508 103.346 70.838 105.336C72.1681 107.327 72.878 109.667 72.878 112.061C72.8747 115.27 71.5984 118.347 69.3291 120.617C67.0598 122.886 63.983 124.162 60.7737 124.165ZM60.7737 103.986C59.1765 103.986 57.6152 104.459 56.2871 105.347C54.9591 106.234 53.924 107.495 53.3128 108.971C52.7016 110.446 52.5417 112.07 52.8533 113.637C53.1649 115.203 53.934 116.642 55.0634 117.772C56.1928 118.901 57.6317 119.67 59.1983 119.982C60.7648 120.293 62.3885 120.133 63.8642 119.522C65.3398 118.911 66.601 117.876 67.4884 116.548C68.3758 115.22 68.8494 113.658 68.8494 112.061C68.8478 109.92 67.9964 107.867 66.4823 106.353C64.9682 104.839 62.915 103.987 60.7737 103.986Z" fill="#275563"/>
<path d="M100.407 124.165C98.0127 124.165 95.6724 123.456 93.6819 122.126C91.6914 120.795 90.14 118.905 89.2238 116.693C88.3077 114.482 88.068 112.048 88.535 109.7C89.0021 107.352 90.1549 105.195 91.8477 103.502C93.5405 101.809 95.6973 100.657 98.0453 100.19C100.393 99.7225 102.827 99.9622 105.039 100.878C107.251 101.794 109.141 103.346 110.471 105.336C111.801 107.327 112.511 109.667 112.511 112.061C112.508 115.27 111.231 118.347 108.962 120.617C106.693 122.886 103.616 124.162 100.407 124.165ZM100.407 103.986C98.8095 103.986 97.2481 104.459 95.9201 105.347C94.592 106.234 93.557 107.495 92.9457 108.971C92.3345 110.446 92.1746 112.07 92.4862 113.637C92.7978 115.203 93.5669 116.642 94.6963 117.772C95.8257 118.901 97.2647 119.67 98.8312 119.982C100.398 120.293 102.021 120.133 103.497 119.522C104.973 118.911 106.234 117.876 107.121 116.548C108.009 115.22 108.482 113.658 108.482 112.061C108.481 109.92 107.629 107.867 106.115 106.353C104.601 104.839 102.548 103.987 100.407 103.986Z" fill="#275563"/>
<path d="M16.872 27.9414H2.01429C1.48007 27.9414 0.967726 27.7291 0.589973 27.3514C0.21222 26.9736 0 26.4613 0 25.9271C0 25.3929 0.21222 24.8805 0.589973 24.5028C0.967726 24.125 1.48007 23.9128 2.01429 23.9128H16.872C17.4062 23.9128 17.9186 24.125 18.2963 24.5028C18.6741 24.8805 18.8863 25.3929 18.8863 25.9271C18.8863 26.4613 18.6741 26.9736 18.2963 27.3514C17.9186 27.7291 17.4062 27.9414 16.872 27.9414Z" fill="#275563"/>
<path d="M19.9705 36.9226H8.20503C7.6708 36.9226 7.15846 36.7103 6.78071 36.3326C6.40295 35.9548 6.19073 35.4425 6.19073 34.9083C6.19073 34.374 6.40295 33.8617 6.78071 33.484C7.15846 33.1062 7.6708 32.894 8.20503 32.894H19.9705C20.5047 32.894 21.017 33.1062 21.3948 33.484C21.7725 33.8617 21.9848 34.374 21.9848 34.9083C21.9848 35.4425 21.7725 35.9548 21.3948 36.3326C21.017 36.7103 20.5047 36.9226 19.9705 36.9226Z" fill="#275563"/>
<path d="M21.8246 45.8976H13.1576C12.6234 45.8976 12.111 45.6854 11.7333 45.3076C11.3555 44.9299 11.1433 44.4175 11.1433 43.8833C11.1433 43.3491 11.3555 42.8367 11.7333 42.459C12.111 42.0812 12.6234 41.869 13.1576 41.869H21.8246C22.3588 41.869 22.8712 42.0812 23.2489 42.459C23.6267 42.8367 23.8389 43.3491 23.8389 43.8833C23.8389 44.4175 23.6267 44.9299 23.2489 45.3076C22.8712 45.6854 22.3588 45.8976 21.8246 45.8976Z" fill="#275563"/>
<path opacity="0.7" d="M36.8302 58.088C36.3861 58.088 35.9545 57.9412 35.6024 57.6705C35.2504 57.3998 34.9977 57.0203 34.8836 56.5912L33.1835 50.1787C33.0538 49.665 33.1318 49.1209 33.4005 48.6642C33.6692 48.2076 34.107 47.8752 34.6191 47.7391C35.1311 47.603 35.6762 47.6741 36.1362 47.937C36.5961 48.2 36.934 48.6335 37.0766 49.1438L38.8075 55.5563C38.8868 55.8546 38.8965 56.167 38.8358 56.4696C38.7751 56.7722 38.6458 57.0568 38.4577 57.3015C38.2696 57.5462 38.0277 57.7443 37.7509 57.8807C37.4741 58.0171 37.1696 58.088 36.861 58.088H36.8302Z" fill="white"/>
<path opacity="0.7" d="M32.6907 43.7785C32.2466 43.7785 31.815 43.6317 31.463 43.361C31.1109 43.0903 30.8582 42.7108 30.7441 42.2817L29.8263 38.8075C29.6967 38.2938 29.7746 37.7496 30.0434 37.293C30.3121 36.8364 30.7499 36.504 31.2619 36.3679C31.7739 36.2318 32.319 36.3029 32.779 36.5658C33.239 36.8288 33.5768 37.2623 33.7194 37.7726L34.6372 41.2714C34.7165 41.5697 34.7262 41.8822 34.6655 42.1848C34.6049 42.4874 34.4755 42.772 34.2874 43.0166C34.0993 43.2613 33.8575 43.4595 33.5806 43.5958C33.3038 43.7322 32.9993 43.8031 32.6907 43.8032V43.7785Z" fill="white"/>
<path d="M39.2325 94.8196H125.342V99.9817H39.2325V94.8196Z" fill="#ED5958"/>
<path d="M120.556 104.01H45.2015C43.4342 104.018 41.7121 103.452 40.2946 102.396C38.877 101.341 37.8406 99.8537 37.3414 98.1583L15.9295 26.7033L11.8455 12.9051C11.6936 12.3929 11.7513 11.8413 12.006 11.3718C12.2608 10.9022 12.6916 10.553 13.2038 10.4011C13.7159 10.2491 14.2675 10.3069 14.7371 10.5616C15.2067 10.8163 15.5558 11.2471 15.7078 11.7593L19.7918 25.5514L41.2037 97.0064C41.4575 97.8703 41.9853 98.6283 42.7075 99.1661C43.4297 99.7039 44.3072 99.9923 45.2076 99.9878H120.556C121.589 99.9886 122.585 99.606 123.352 98.9141C124.119 98.2222 124.602 97.2702 124.708 96.2426L126.913 76.0381C126.981 75.5153 127.251 75.0399 127.665 74.714C128.079 74.3881 128.605 74.2376 129.129 74.2948C129.653 74.3521 130.134 74.6125 130.468 75.0202C130.802 75.4278 130.963 75.9503 130.917 76.4754L128.742 96.6676C128.533 98.6894 127.579 100.561 126.065 101.918C124.552 103.275 122.588 104.021 120.556 104.01Z" fill="#275563"/>
<path d="M131.249 53.8808H131.028C130.497 53.822 130.011 53.5546 129.677 53.1376C129.343 52.7206 129.189 52.188 129.247 51.6571L131.323 32.7276C131.382 32.1466 131.318 31.5597 131.136 31.0049C130.953 30.4501 130.657 29.9397 130.265 29.5066C129.873 29.0736 129.395 28.7275 128.861 28.4908C128.327 28.2541 127.749 28.132 127.165 28.1323H35.863C35.3288 28.1323 34.8165 27.9201 34.4387 27.5424C34.061 27.1646 33.8488 26.6523 33.8488 26.1181C33.8488 25.5838 34.061 25.0715 34.4387 24.6937C34.8165 24.316 35.3288 24.1038 35.863 24.1038H127.165C128.315 24.1036 129.451 24.3449 130.501 24.812C131.551 25.2791 132.492 25.9616 133.261 26.8153C134.03 27.669 134.612 28.6748 134.968 29.7676C135.324 30.8604 135.446 32.0157 135.327 33.1588L133.251 52.1006C133.194 52.5912 132.958 53.0435 132.589 53.3718C132.22 53.7 131.743 53.8811 131.249 53.8808Z" fill="#275563"/>
<path d="M82.5737 58.2236C96.2838 58.2236 107.398 47.09 107.398 33.356C107.398 19.622 96.2838 8.4884 82.5737 8.4884C68.8635 8.4884 57.7492 19.622 57.7492 33.356C57.7492 47.09 68.8635 58.2236 82.5737 58.2236Z" fill="#908152"/>
<path d="M82.7708 52.0021C96.5048 52.0021 107.638 40.8685 107.638 27.1345C107.638 13.4005 96.5048 2.26691 82.7708 2.26691C69.0368 2.26691 57.9032 13.4005 57.9032 27.1345C57.9032 40.8685 69.0368 52.0021 82.7708 52.0021Z" fill="white"/>
<path opacity="0.5" d="M108.045 26.9435C108.042 30.5461 107.257 34.1051 105.743 37.3742C104.23 40.6433 102.024 43.5445 99.2784 45.8771C96.5329 48.2096 93.3134 49.9178 89.8427 50.8834C86.3719 51.849 82.7328 52.049 79.1772 51.4695C75.6216 50.89 72.2343 49.5448 69.2498 47.5272C66.2653 45.5095 63.7548 42.8674 61.892 39.7838C60.0293 36.7003 58.8587 33.2487 58.4614 29.6682C58.0641 26.0876 58.4496 22.4634 59.591 19.0465C61.6299 30.5348 72.2065 40.8773 83.1773 40.8773C94.1481 40.8773 104.164 32.5614 106.764 19.0465C107.616 21.5919 108.049 24.2591 108.045 26.9435Z" fill="#D9F0FF"/>
<path d="M107.829 26.5615C107.829 33.1568 105.209 39.482 100.546 44.1456C95.8822 48.8091 89.5571 51.4291 82.9618 51.4291C76.3665 51.4291 70.0413 48.8091 65.3777 44.1456C60.7142 39.482 58.0942 33.1568 58.0942 26.5615C58.0942 25.4781 58.1641 24.3958 58.3036 23.3214C59.0855 29.308 62.0187 34.8057 66.5559 38.7888C71.093 42.7719 76.9243 44.9684 82.9618 44.9684C88.9992 44.9684 94.8305 42.7719 99.3677 38.7888C103.905 34.8057 106.838 29.308 107.62 23.3214C107.759 24.3958 107.829 25.4781 107.829 26.5615Z" fill="#D9F0FF"/>
<path d="M82.5429 53.7638C77.2262 53.7638 72.0288 52.1872 67.6081 49.2334C63.1874 46.2795 59.7419 42.0812 57.7073 37.1691C55.6727 32.2571 55.1403 26.8521 56.1776 21.6375C57.2148 16.4229 59.775 11.633 63.5345 7.87353C67.294 4.11403 72.0839 1.55378 77.2985 0.51654C82.5131 -0.520703 87.9181 0.0116475 92.8301 2.04627C97.7422 4.0809 101.941 7.52642 104.894 11.9471C107.848 16.3678 109.425 21.5652 109.425 26.8819C109.417 34.0089 106.582 40.8417 101.542 45.8812C96.5027 50.9208 89.6699 53.7556 82.5429 53.7638ZM82.5429 4.0286C78.0229 4.0286 73.6045 5.36892 69.8463 7.88007C66.0881 10.3912 63.1589 13.9604 61.4292 18.1363C59.6995 22.3122 59.2469 26.9072 60.1287 31.3403C61.0105 35.7734 63.1871 39.8455 66.3832 43.0416C69.5793 46.2377 73.6513 48.4143 78.0844 49.2961C82.5175 50.1779 87.1126 49.7253 91.2885 47.9956C95.4644 46.2659 99.0336 43.3367 101.545 39.5785C104.056 35.8203 105.396 31.4018 105.396 26.8819C105.39 20.8228 102.98 15.0138 98.6954 10.7294C94.411 6.44496 88.602 4.03512 82.5429 4.0286Z" fill="#275563"/>
<path opacity="0.7" d="M39.2325 64.9749C40.345 64.9749 41.2468 64.073 41.2468 62.9606C41.2468 61.8481 40.345 60.9463 39.2325 60.9463C38.12 60.9463 37.2182 61.8481 37.2182 62.9606C37.2182 64.073 38.12 64.9749 39.2325 64.9749Z" fill="white"/>
<path d="M77.0852 26.8942C77.0731 26.5374 77.1792 26.1866 77.387 25.8963C77.4753 25.7698 77.5935 25.667 77.731 25.5972C77.8686 25.5273 78.0213 25.4925 78.1755 25.4959H81.083V22.5207C81.0884 22.3623 81.1308 22.2075 81.2068 22.0684C81.2827 21.9294 81.3901 21.81 81.5204 21.7199C81.8113 21.4856 82.1755 21.3612 82.5491 21.3688C82.9255 21.3542 83.2941 21.4792 83.5839 21.7199C83.7075 21.8142 83.8082 21.9352 83.8786 22.0739C83.949 22.2125 83.9872 22.3652 83.9905 22.5207V25.4959H86.8548C87.0088 25.5013 87.1595 25.5412 87.296 25.6126C87.4325 25.684 87.5512 25.7852 87.6433 25.9086C87.8776 26.1828 88.0026 26.5337 87.9944 26.8942C88.0084 27.2535 87.8875 27.605 87.6556 27.8798C87.5594 28 87.4376 28.0972 87.2991 28.1643C87.1605 28.2314 87.0088 28.2668 86.8548 28.2679H83.9782V31.2739C83.9821 31.4311 83.9483 31.5869 83.8797 31.7283C83.8111 31.8698 83.7097 31.9927 83.5839 32.087C83.2801 32.3059 82.9107 32.4145 82.5367 32.395C82.1635 32.4089 81.7959 32.3007 81.4895 32.087C81.3577 31.997 81.2503 31.8755 81.1772 31.7335C81.104 31.5915 81.0674 31.4336 81.0707 31.2739V28.2679H78.1632C78.0114 28.2725 77.8606 28.2408 77.7235 28.1754C77.5863 28.1101 77.4668 28.0129 77.3747 27.8921C77.1665 27.6026 77.0642 27.2502 77.0852 26.8942Z" fill="#275563"/>
<path d="M129.525 70.642H129.358C129.095 70.621 128.838 70.5482 128.602 70.4279C128.366 70.3075 128.157 70.142 127.985 69.9406C127.814 69.7393 127.683 69.5061 127.602 69.2544C127.52 69.0027 127.489 68.7374 127.51 68.4737L127.806 64.7777C127.849 64.2451 128.102 63.7516 128.51 63.4056C128.917 63.0596 129.445 62.8895 129.977 62.9328C130.51 62.9761 131.004 63.2292 131.349 63.6364C131.695 64.0436 131.866 64.5716 131.822 65.1042L131.527 68.8002C131.483 69.3018 131.254 69.7692 130.883 70.1101C130.513 70.451 130.028 70.6407 129.525 70.642Z" fill="#275563"/>
<path d="M130.344 60.6013H130.178C129.914 60.5803 129.657 60.5075 129.421 60.3872C129.186 60.2668 128.976 60.1013 128.804 59.8999C128.633 59.6986 128.503 59.4654 128.421 59.2137C128.34 58.962 128.309 58.6967 128.33 58.433V58.279C128.351 58.0153 128.423 57.7583 128.544 57.5227C128.664 57.2871 128.83 57.0775 129.031 56.9059C129.232 56.7343 129.466 56.6041 129.717 56.5226C129.969 56.4411 130.234 56.41 130.498 56.431C130.762 56.452 131.019 56.5248 131.254 56.6451C131.49 56.7655 131.699 56.9311 131.871 57.1324C132.043 57.3338 132.173 57.5669 132.254 57.8186C132.336 58.0703 132.367 58.3356 132.346 58.5993V58.7533C132.304 59.2561 132.075 59.7249 131.705 60.0671C131.334 60.4093 130.848 60.5999 130.344 60.6013Z" fill="#275563"/>
</svg>
