<svg width="25" height="23" viewBox="0 0 25 23" fill="none" xmlns="http://www.w3.org/2000/svg">
<path d="M21.9061 13.8889H9.18281L9.46688 15.2778H21.117C21.7854 15.2778 22.2809 15.8985 22.1327 16.5503L21.8933 17.6039C22.7045 17.9977 23.2639 18.8293 23.2639 19.7917C23.2639 21.1459 22.1563 22.2415 20.7976 22.222C19.5032 22.2033 18.4386 21.1529 18.4037 19.8588C18.3846 19.1519 18.6678 18.5112 19.133 18.0555H10.0337C10.4841 18.4967 10.7639 19.1114 10.7639 19.7917C10.7639 21.1724 9.6125 22.2843 8.21745 22.2195C6.97873 22.162 5.97131 21.1612 5.90621 19.9228C5.85595 18.9664 6.35916 18.1235 7.1237 17.6838L4.07478 2.77778H1.04167C0.466363 2.77778 0 2.31141 0 1.73611V1.04167C0 0.466363 0.466363 0 1.04167 0H5.49171C5.98655 0 6.41306 0.348134 6.51224 0.832899L6.91007 2.77778H23.9579C24.6263 2.77778 25.1218 3.39848 24.9737 4.0503L22.9219 13.0781C22.8141 13.5523 22.3925 13.8889 21.9061 13.8889ZM17.4926 8.33333H15.625V5.72917C15.625 5.44154 15.3918 5.20833 15.1042 5.20833H14.0625C13.7749 5.20833 13.5417 5.44154 13.5417 5.72917V8.33333H11.6741C11.2101 8.33333 10.9777 8.89436 11.3058 9.22244L14.2151 12.1317C14.4184 12.3351 14.7482 12.3351 14.9516 12.1317L17.8609 9.22244C18.189 8.89436 17.9566 8.33333 17.4926 8.33333Z" fill="#275563"/>
</svg>
