<svg width="50" height="40" viewBox="0 0 50 40" fill="none" xmlns="http://www.w3.org/2000/svg">
<path d="M45.8438 23.5405L49.9473 7.29055C50.2436 6.11727 49.2527 5 47.9158 5H13.8201L13.0245 1.49922C12.8262 0.626641 11.9731 0 10.9834 0H2.08333C0.932726 0 0 0.839453 0 1.875V3.125C0 4.16055 0.932726 5 2.08333 5H8.14957L14.2475 31.8309C12.7886 32.5859 11.8056 34.0017 11.8056 35.625C11.8056 38.0412 13.9819 40 16.6667 40C19.3514 40 21.5278 38.0412 21.5278 35.625C21.5278 34.4005 20.9681 33.2941 20.0674 32.5H38.2659C37.3652 33.2941 36.8056 34.4005 36.8056 35.625C36.8056 38.0412 38.982 40 41.6667 40C44.3514 40 46.5278 38.0412 46.5278 35.625C46.5278 33.8928 45.409 32.3959 43.7866 31.6871L44.2655 29.7905C44.5617 28.6173 43.5708 27.5 42.234 27.5H18.9338L18.3656 25H43.8122C44.785 25 45.6282 24.3942 45.8438 23.5405Z" fill="white"/>
</svg>
