<svg width="19" height="25" viewBox="0 0 19 25" fill="none" xmlns="http://www.w3.org/2000/svg">
<path d="M16.4062 3.125H12.5C12.5 1.40137 11.0986 0 9.375 0C7.65137 0 6.25 1.40137 6.25 3.125H2.34375C1.0498 3.125 0 4.1748 0 5.46875V22.6562C0 23.9502 1.0498 25 2.34375 25H16.4062C17.7002 25 18.75 23.9502 18.75 22.6562V5.46875C18.75 4.1748 17.7002 3.125 16.4062 3.125ZM4.6875 20.7031C4.03809 20.7031 3.51562 20.1807 3.51562 19.5312C3.51562 18.8818 4.03809 18.3594 4.6875 18.3594C5.33691 18.3594 5.85938 18.8818 5.85938 19.5312C5.85938 20.1807 5.33691 20.7031 4.6875 20.7031ZM4.6875 16.0156C4.03809 16.0156 3.51562 15.4932 3.51562 14.8438C3.51562 14.1943 4.03809 13.6719 4.6875 13.6719C5.33691 13.6719 5.85938 14.1943 5.85938 14.8438C5.85938 15.4932 5.33691 16.0156 4.6875 16.0156ZM4.6875 11.3281C4.03809 11.3281 3.51562 10.8057 3.51562 10.1562C3.51562 9.50684 4.03809 8.98438 4.6875 8.98438C5.33691 8.98438 5.85938 9.50684 5.85938 10.1562C5.85938 10.8057 5.33691 11.3281 4.6875 11.3281ZM9.375 1.95312C10.0244 1.95312 10.5469 2.47559 10.5469 3.125C10.5469 3.77441 10.0244 4.29688 9.375 4.29688C8.72559 4.29688 8.20312 3.77441 8.20312 3.125C8.20312 2.47559 8.72559 1.95312 9.375 1.95312ZM15.625 19.9219C15.625 20.1367 15.4492 20.3125 15.2344 20.3125H8.20312C7.98828 20.3125 7.8125 20.1367 7.8125 19.9219V19.1406C7.8125 18.9258 7.98828 18.75 8.20312 18.75H15.2344C15.4492 18.75 15.625 18.9258 15.625 19.1406V19.9219ZM15.625 15.2344C15.625 15.4492 15.4492 15.625 15.2344 15.625H8.20312C7.98828 15.625 7.8125 15.4492 7.8125 15.2344V14.4531C7.8125 14.2383 7.98828 14.0625 8.20312 14.0625H15.2344C15.4492 14.0625 15.625 14.2383 15.625 14.4531V15.2344ZM15.625 10.5469C15.625 10.7617 15.4492 10.9375 15.2344 10.9375H8.20312C7.98828 10.9375 7.8125 10.7617 7.8125 10.5469V9.76562C7.8125 9.55078 7.98828 9.375 8.20312 9.375H15.2344C15.4492 9.375 15.625 9.55078 15.625 9.76562V10.5469Z" fill="#275563"/>
</svg>
