<svg width="30" height="30" viewBox="0 0 30 30" fill="none" xmlns="http://www.w3.org/2000/svg">
<path d="M15 0C6.71631 0 0 6.71873 0 15C0 23.2861 6.71631 30 15 30C23.2837 30 30 23.2861 30 15C30 6.71873 23.2837 0 15 0ZM15 27.0968C8.3146 27.0968 2.90323 21.6876 2.90323 15C2.90323 8.31683 8.31484 2.90323 15 2.90323C21.6829 2.90323 27.0968 8.31478 27.0968 15C27.0968 21.6853 21.6876 27.0968 15 27.0968ZM21.4865 11.6613C21.4865 15.7169 17.1062 15.7793 17.1062 17.278V17.6613C17.1062 18.0621 16.7812 18.3871 16.3804 18.3871H13.6195C13.2187 18.3871 12.8937 18.0621 12.8937 17.6613V17.1376C12.8937 14.9756 14.5328 14.1113 15.7715 13.4168C16.8336 12.8214 17.4846 12.4164 17.4846 11.6278C17.4846 10.5847 16.154 9.89232 15.0783 9.89232C13.6758 9.89232 13.0283 10.5562 12.1181 11.705C11.8727 12.0146 11.425 12.0722 11.1101 11.8334L9.4272 10.5573C9.11831 10.3231 9.04911 9.88802 9.26728 9.56764C10.6963 7.46921 12.5165 6.29032 15.3504 6.29032C18.3184 6.29032 21.4865 8.6071 21.4865 11.6613ZM17.5403 21.7742C17.5403 23.1749 16.4007 24.3145 15 24.3145C13.5993 24.3145 12.4597 23.1749 12.4597 21.7742C12.4597 20.3734 13.5993 19.2339 15 19.2339C16.4007 19.2339 17.5403 20.3734 17.5403 21.7742Z" fill="#ACE1AF"/>
</svg>
