<svg width="65" height="52" viewBox="0 0 65 52" fill="none" xmlns="http://www.w3.org/2000/svg">
<g clip-path="url(#clip0_1448_944)">
<path d="M34.5972 24.3227H34.2219C31.7257 25.8935 28.5849 26.8387 25.1618 26.8387C21.7388 26.8387 18.598 25.8935 16.1018 24.3225H15.7265H5.24268V37.7418H45.0812V24.3225H34.5972V24.3227Z" fill="#F9BA48"/>
<path d="M61.8557 41.0967H60.8072V31.8709H56.5144L55.4659 23.4838H46.1301V15.9355H40.8346C40.8576 15.6571 40.888 15.3803 40.888 15.0967C40.888 11.7167 39.2044 8.64955 36.4838 6.3867L37.2188 5.79875L39.0986 7.30261L40.581 6.1167L35.3392 1.92308L33.8568 3.10899L35.7366 4.61284L34.9325 5.25607C32.5034 3.70945 29.4946 2.73324 26.2111 2.55879V1.67741H29.3562V0H20.9691V1.67741H24.1141V2.55897C20.8306 2.73342 17.8218 3.71053 15.3927 5.25625L14.5887 4.61302L16.4685 3.10916L14.9861 1.92326L9.74362 6.1167L11.226 7.30261L13.1058 5.79875L13.8408 6.3867C11.1202 8.64955 9.43654 11.7167 9.43654 15.0967C9.43654 15.3801 9.46696 15.6569 9.48999 15.9355H4.19451V41.0967H3.14624C1.41224 41.0967 0.000976562 42.2256 0.000976562 43.6128C0.000976562 45 1.41202 46.129 3.14601 46.129H4.19429H6.29105H9.43609C9.43609 49.3655 12.7281 52 16.7747 52C20.8213 52 24.1132 49.3657 24.1132 46.129H44.0324C44.0324 49.3655 47.3244 52 51.371 52C55.4176 52 58.7095 49.3657 58.7095 46.129H60.8063H61.8548C63.5888 46.129 64.9998 45.0001 64.9998 43.6128C64.9998 42.2254 63.5897 41.0967 61.8557 41.0967ZM53.5682 25.1612L54.4069 31.8709H46.1298V25.1612H53.5682ZM25.1622 4.19362C32.677 4.19362 38.791 9.08487 38.791 15.0969C38.791 21.1089 32.677 26 25.1622 26C17.6474 26 11.5333 21.1086 11.5333 15.0967C11.5333 9.08487 17.6474 4.19362 25.1622 4.19362ZM4.19451 44.4515H3.14624C2.56854 44.4515 2.09797 44.0758 2.09797 43.6128C2.09797 43.1497 2.56876 42.774 3.14624 42.774H4.19451V44.4515ZM16.7751 50.3224C13.8848 50.3224 11.5333 48.4412 11.5333 46.1288C11.5333 43.8164 13.8848 41.9353 16.7751 41.9353C19.6654 41.9353 22.0169 43.8165 22.0169 46.129C22.0169 48.4414 19.6656 50.3224 16.7751 50.3224ZM23.8046 44.4515C22.8997 42.0293 20.0921 40.2579 16.7751 40.2579C13.4581 40.2579 10.6505 42.0293 9.74563 44.4515H6.29128V41.0967V17.6129H9.75301C11.2144 23.348 17.5677 27.6774 25.1622 27.6774C32.7566 27.6774 39.1098 23.348 40.5713 17.6129H44.0331V23.484V31.871V33.5485V44.4517H23.8046V44.4515ZM51.3716 50.3224C48.4813 50.3224 46.1298 48.4412 46.1298 46.1288C46.1298 43.8164 48.4813 41.9352 51.3716 41.9352C54.2619 41.9352 56.6135 43.8164 56.6135 46.1288C56.6135 48.4412 54.2622 50.3224 51.3716 50.3224ZM58.7107 44.4515H58.4013C57.4964 42.0293 54.6889 40.2579 51.3716 40.2579C49.3189 40.2579 47.4633 40.9373 46.1298 42.0284V33.5483H56.7237H58.7104V41.0967V44.4515H58.7107ZM61.8557 44.4515H60.8072V42.7741H61.8557C62.4334 42.7741 62.904 43.1499 62.904 43.6129C62.904 44.076 62.4332 44.4515 61.8557 44.4515Z" fill="#333333"/>
<path d="M16.7747 43.6128C15.0407 43.6128 13.6296 44.7416 13.6296 46.129C13.6296 47.5162 15.0407 48.6452 16.7747 48.6452C18.5087 48.6452 19.9197 47.5164 19.9197 46.129C19.9199 44.7416 18.5087 43.6128 16.7747 43.6128ZM16.7747 46.9676C16.197 46.9676 15.7264 46.5919 15.7264 46.1288C15.7264 45.6658 16.1972 45.29 16.7747 45.29C17.3522 45.29 17.8229 45.6658 17.8229 46.1288C17.8229 46.5919 17.3524 46.9676 16.7747 46.9676Z" fill="#333333"/>
<path d="M51.3711 43.6128C49.6371 43.6128 48.2261 44.7416 48.2261 46.129C48.2261 47.5162 49.6371 48.6452 51.3711 48.6452C53.1051 48.6452 54.5162 47.5164 54.5162 46.129C54.5164 44.7416 53.1051 43.6128 51.3711 43.6128ZM51.3711 46.9676C50.7934 46.9676 50.3226 46.5919 50.3226 46.1288C50.3226 45.6658 50.7934 45.29 51.3711 45.29C51.9488 45.29 52.4194 45.6658 52.4194 46.1288C52.4194 46.5919 51.9488 46.9676 51.3711 46.9676Z" fill="#333333"/>
<path d="M22.0168 15.0968C22.0168 16.484 23.4278 17.613 25.1618 17.613C26.8958 17.613 28.3069 16.4842 28.3069 15.0968C28.3069 13.7094 26.8958 12.5806 25.1618 12.5806C24.9836 12.5806 24.8116 12.5999 24.6407 12.6224L18.6188 7.00244L17.0264 8.09441L22.7841 13.468C22.3122 13.9084 22.0168 14.4729 22.0168 15.0968ZM26.2103 15.0968C26.2103 15.559 25.7395 15.9356 25.162 15.9356C24.5843 15.9356 24.1138 15.559 24.1138 15.0968C24.1138 14.6346 24.5846 14.258 25.162 14.258C25.7395 14.2582 26.2103 14.6346 26.2103 15.0968Z" fill="#333333"/>
<path d="M24.2056 24.2848L24.3776 22.6133C19.5268 22.2929 15.7264 18.9917 15.7264 15.0969C15.7264 13.2534 16.5756 11.4753 18.1177 10.0881L16.5515 8.97339C14.6676 10.6676 13.6296 12.8423 13.6296 15.0967C13.6296 19.8581 18.275 23.8939 24.2056 24.2848Z" fill="#333333"/>
</g>
<defs>
<clipPath id="clip0_1448_944">
<rect width="65" height="52" fill="white"/>
</clipPath>
</defs>
</svg>
