<svg width="56" height="48" viewBox="0 0 56 48" fill="none" xmlns="http://www.w3.org/2000/svg">
<path fill-rule="evenodd" clip-rule="evenodd" d="M6 1H55V7H6V1Z" fill="#3E4F59"/>
<path fill-rule="evenodd" clip-rule="evenodd" d="M6 7H55V47H6V7Z" fill="#ACBEC2"/>
<path fill-rule="evenodd" clip-rule="evenodd" d="M6 7V47H35.7695C41.5448 41.7879 46.3749 35.2401 49.679 28.1441C52.9831 21.048 54.6206 13.7057 54.3945 7H6Z" fill="#E8EDEE"/>
<path fill-rule="evenodd" clip-rule="evenodd" d="M22.9729 12L49.9999 19.1773L45.8317 34.5932L18.8047 27.4158L22.9729 12Z" fill="#0075D3"/>
<path fill-rule="evenodd" clip-rule="evenodd" d="M8 0C6.35499 0 5 1.35499 5 3V43C5 43.5523 5.44772 44 6 44C6.55228 44 7 43.5523 7 43V3C7 2.43587 7.43587 2 8 2H53C53.5641 2 54 2.43587 54 3V6H12C11.4477 6 11 6.44771 11 7C11 7.55229 11.4477 8 12 8H54V45C54 45.5641 53.5641 46 53 46H4C3.44772 46 3 46.4477 3 47C3 47.5523 3.44772 48 4 48H53C54.645 48 56 46.645 56 45C56 31 56 17 56 3C56 1.35499 54.645 0 53 0H8Z" fill="black"/>
<path fill-rule="evenodd" clip-rule="evenodd" d="M51 3C50.4477 3 50 3.44771 50 4C50 4.55228 50.4477 5 51 5C51.5523 5 52 4.55228 52 4C52 3.44771 51.5523 3 51 3Z" fill="#ED7161"/>
<path fill-rule="evenodd" clip-rule="evenodd" d="M47 3C46.4477 3 46 3.44771 46 4C46 4.55228 46.4477 5 47 5C47.5523 5 48 4.55228 48 4C48 3.44771 47.5523 3 47 3Z" fill="#ECBA16"/>
<path fill-rule="evenodd" clip-rule="evenodd" d="M43 3C42.4477 3 42 3.44771 42 4C42 4.55228 42.4477 5 43 5C43.5523 5 44 4.55228 44 4C44 3.44771 43.5523 3 43 3Z" fill="#42B05C"/>
<path fill-rule="evenodd" clip-rule="evenodd" d="M1 46C0.734784 46 0.480429 46.1054 0.292892 46.2929C0.105356 46.4804 0 46.7348 0 47C0 47.2652 0.105356 47.5196 0.292892 47.7071C0.480429 47.8946 0.734784 48 1 48C1.26522 48 1.51957 47.8946 1.70711 47.7071C1.89464 47.5196 2 47.2652 2 47C2 46.7348 1.89464 46.4804 1.70711 46.2929C1.51957 46.1054 1.26522 46 1 46Z" fill="black"/>
<path fill-rule="evenodd" clip-rule="evenodd" d="M9 6C8.44772 6 8 6.44771 8 7C8 7.55228 8.44772 8 9 8C9.55228 8 10 7.55228 10 7C10 6.44771 9.55228 6 9 6Z" fill="black"/>
<path fill-rule="evenodd" clip-rule="evenodd" d="M22.9727 12L18.8047 27.416L38.8594 32.7422C40.2263 31.1646 41.1789 29.3397 41.668 27.3613C42.5298 23.8691 41.9113 20.0511 39.9082 16.498L22.9727 12Z" fill="#0588E2"/>
<path fill-rule="evenodd" clip-rule="evenodd" d="M22.9727 12.0005L21.9375 15.8325L48.9473 23.0688L50 19.1782L22.9727 12.0005Z" fill="#FFA221"/>
<path fill-rule="evenodd" clip-rule="evenodd" d="M22.9727 12L21.9375 15.832L41.6738 21.1191C41.3372 19.5522 40.743 17.997 39.9082 16.498L22.9727 12Z" fill="#FFC343"/>
<path fill-rule="evenodd" clip-rule="evenodd" d="M23.0312 11.002C22.5681 10.9747 22.1337 11.2732 22.0078 11.7383L17.8398 27.1543C17.6946 27.6896 18.0127 28.2407 18.5488 28.3828L45.5742 35.5606C46.107 35.7021 46.6538 35.3859 46.7969 34.8535L48.2285 29.5567C48.3729 29.0238 48.0581 28.4748 47.5254 28.3301C46.9919 28.1859 46.4426 28.5016 46.2988 29.0352L45.1269 33.3711L20.0312 26.7071L22.6406 17.0567L37.75 21.1035C38.284 21.2476 38.8336 20.9308 38.9765 20.3965C39.1193 19.8625 38.8017 19.314 38.2676 19.1719L23.164 15.127L23.6777 13.2227L48.7734 19.8867L48.2422 21.8457L42.4902 20.3028C41.9568 20.1599 41.4086 20.4764 41.2656 21.0098C41.1227 21.5432 41.4393 22.0914 41.9726 22.2344L47.7207 23.7754L47.2441 25.541C47.0997 26.0739 47.4145 26.6229 47.9472 26.7676C48.4801 26.912 49.0291 26.5972 49.1738 26.0645C49.7708 23.8555 50.3669 21.6463 50.9648 19.4375C51.1087 18.9029 50.7909 18.3531 50.2558 18.211L23.2304 11.0332C23.1639 11.0155 23.0974 11.0059 23.0312 11.002Z" fill="black"/>
<path fill-rule="evenodd" clip-rule="evenodd" d="M11 24H40V42H11V24Z" fill="#FE73C5"/>
<path fill-rule="evenodd" clip-rule="evenodd" d="M11 24V42L25.293 42C31.9796 38.8945 37.2227 34.6408 40 30.0684V24H11Z" fill="#FE93D3"/>
<path d="M23.0001 39.0001C23.5141 39.0001 23.9308 38.5871 23.9308 38.0777C23.9308 37.5683 23.5141 37.1553 23.0001 37.1553C22.4861 37.1553 22.0693 37.5683 22.0693 38.0777C22.0693 38.5871 22.4861 39.0001 23.0001 39.0001Z" fill="black"/>
<path d="M25.9784 39.0001C26.4924 39.0001 26.9091 38.5871 26.9091 38.0777C26.9091 37.5683 26.4924 37.1553 25.9784 37.1553C25.4643 37.1553 25.0476 37.5683 25.0476 38.0777C25.0476 38.5871 25.4643 39.0001 25.9784 39.0001Z" fill="black"/>
<path d="M28.7706 39.0001C29.2846 39.0001 29.7014 38.5871 29.7014 38.0777C29.7014 37.5683 29.2846 37.1553 28.7706 37.1553C28.2566 37.1553 27.8398 37.5683 27.8398 38.0777C27.8398 38.5871 28.2566 39.0001 28.7706 39.0001Z" fill="black"/>
<path d="M40 24H11V28H40V24Z" fill="#FFC343"/>
<path fill-rule="evenodd" clip-rule="evenodd" d="M11 23C10.4477 23.0001 10.0001 23.4477 10 24C10 26 10 28 10 30C10 30.5523 10.4477 31 11 31C11.5523 31 12 30.5523 12 30V29H36C36.5523 29 37 28.5523 37 28C37 27.4477 36.5523 27 36 27H12V25H39V36.1758C39 36.7281 39.4477 37.1758 40 37.1758C40.5523 37.1758 41 36.7281 41 36.1758V24C40.9999 23.4477 40.5523 23.0001 40 23H11ZM11 33C10.4477 33 10 33.4477 10 34V42C10.0001 42.5523 10.4477 42.9999 11 43H40C40.5523 42.9999 40.9999 42.5523 41 42V40.2148C41 39.6626 40.5523 39.2148 40 39.2148C39.4477 39.2148 39 39.6626 39 40.2148V41H12V34C12 33.4477 11.5523 33 11 33Z" fill="black"/>
<path fill-rule="evenodd" clip-rule="evenodd" d="M30.9551 31C30.6899 31 30.4355 31.1054 30.248 31.2929C30.0604 31.4804 29.9551 31.7348 29.9551 32C29.9551 32.2652 30.0604 32.5196 30.248 32.7071C30.4355 32.8946 30.6899 33 30.9551 33H36C36.2652 33 36.5196 32.8946 36.7071 32.7071C36.8946 32.5196 37 32.2652 37 32C37 31.7348 36.8946 31.4804 36.7071 31.2929C36.5196 31.1054 36.2652 31 36 31H30.9551Z" fill="black"/>
<path fill-rule="evenodd" clip-rule="evenodd" d="M15 34H19V38H15V34Z" fill="#FFC343"/>
<path fill-rule="evenodd" clip-rule="evenodd" d="M15 33C14.7348 33 14.4805 33.1054 14.2929 33.2929C14.1054 33.4805 14 33.7348 14 34V38C14 38.2652 14.1054 38.5195 14.2929 38.7071C14.4805 38.8946 14.7348 39 15 39H19C19.2652 39 19.5195 38.8946 19.7071 38.7071C19.8946 38.5195 20 38.2652 20 38V34C20 33.7348 19.8946 33.4805 19.7071 33.2929C19.5195 33.1054 19.2652 33 19 33H15ZM16 35H18V37H16V35Z" fill="black"/>
</svg>
