<svg width="64" height="64" viewBox="0 0 64 64" fill="none" xmlns="http://www.w3.org/2000/svg">
<path fill-rule="evenodd" clip-rule="evenodd" d="M10 9H59V15H10V9Z" fill="#3E4F59"/>
<path fill-rule="evenodd" clip-rule="evenodd" d="M10 15H59V55H10V15Z" fill="#ACBEC2"/>
<path fill-rule="evenodd" clip-rule="evenodd" d="M10 15V55H39.7695C45.5448 49.7879 50.3748 43.2401 53.679 36.1441C56.9831 29.048 58.6206 21.7057 58.3945 15H10Z" fill="#E8EDEE"/>
<path fill-rule="evenodd" clip-rule="evenodd" d="M12 8C10.355 8 9 9.355 9 11V51C9 51.5523 9.44772 52 10 52C10.5523 52 11 51.5523 11 51V11C11 10.4359 11.4359 10 12 10H57C57.5641 10 58 10.4359 58 11V14H16C15.4477 14 15 14.4477 15 15C15 15.5523 15.4477 16 16 16H58V53C58 53.5641 57.5641 54 57 54H8C7.44772 54 7 54.4477 7 55C7 55.5523 7.44772 56 8 56H57C58.645 56 60 54.645 60 53C60 39 60 25 60 11C60 9.355 58.645 8 57 8H12Z" fill="black"/>
<path fill-rule="evenodd" clip-rule="evenodd" d="M55 11C54.4477 11 54 11.4477 54 12C54 12.5523 54.4477 13 55 13C55.5523 13 56 12.5523 56 12C56 11.4477 55.5523 11 55 11Z" fill="#ED7161"/>
<path fill-rule="evenodd" clip-rule="evenodd" d="M51 11C50.4477 11 50 11.4477 50 12C50 12.5523 50.4477 13 51 13C51.5523 13 52 12.5523 52 12C52 11.4477 51.5523 11 51 11Z" fill="#ECBA16"/>
<path fill-rule="evenodd" clip-rule="evenodd" d="M47 11C46.4477 11 46 11.4477 46 12C46 12.5523 46.4477 13 47 13C47.5523 13 48 12.5523 48 12C48 11.4477 47.5523 11 47 11Z" fill="#42B05C"/>
<path fill-rule="evenodd" clip-rule="evenodd" d="M5 54C4.73478 54 4.48044 54.1054 4.29291 54.2929C4.10537 54.4804 4 54.7348 4 55C4 55.2652 4.10537 55.5196 4.29291 55.7071C4.48044 55.8946 4.73478 56 5 56C5.26522 56 5.51956 55.8946 5.70709 55.7071C5.89463 55.5196 6 55.2652 6 55C6 54.7348 5.89463 54.4804 5.70709 54.2929C5.51956 54.1054 5.26522 54 5 54Z" fill="black"/>
<path fill-rule="evenodd" clip-rule="evenodd" d="M13 14C12.4477 14 12 14.4477 12 15C12 15.5523 12.4477 16 13 16C13.5523 16 14 15.5523 14 15C14 14.4477 13.5523 14 13 14Z" fill="black"/>
<path fill-rule="evenodd" clip-rule="evenodd" d="M31 19.0684C30.7348 19.0684 30.4804 19.1737 30.2929 19.3613C30.1054 19.5488 30 19.8031 30 20.0684V48.9316C30 49.1969 30.1054 49.4512 30.2929 49.6387C30.4804 49.8263 30.7348 49.9316 31 49.9316C31.2652 49.9316 31.5196 49.8263 31.7071 49.6387C31.8946 49.4512 32 49.1969 32 48.9316V20.0684C32 19.8031 31.8946 19.5488 31.7071 19.3613C31.5196 19.1737 31.2652 19.0684 31 19.0684Z" fill="black"/>
<path fill-rule="evenodd" clip-rule="evenodd" d="M22 38C21.7348 38 21.4804 38.1054 21.2929 38.2929C21.1054 38.4804 21 38.7348 21 39C21 39.2652 21.1054 39.5196 21.2929 39.7071C21.4804 39.8946 21.7348 40 22 40H27C27.2652 40 27.5196 39.8946 27.7071 39.7071C27.8946 39.5196 28 39.2652 28 39C28 38.7348 27.8946 38.4804 27.7071 38.2929C27.5196 38.1054 27.2652 38 27 38H22Z" fill="black"/>
<path fill-rule="evenodd" clip-rule="evenodd" d="M15 38C14.7348 38 14.4804 38.1054 14.2929 38.2929C14.1054 38.4804 14 38.7348 14 39C14 39.2652 14.1054 39.5196 14.2929 39.7071C14.4804 39.8946 14.7348 40 15 40H18C18.2652 40 18.5196 39.8946 18.7071 39.7071C18.8946 39.5196 19 39.2652 19 39C19 38.7348 18.8946 38.4804 18.7071 38.2929C18.5196 38.1054 18.2652 38 18 38H15Z" fill="black"/>
<path fill-rule="evenodd" clip-rule="evenodd" d="M15 44C14.7348 44 14.4804 44.1054 14.2929 44.2929C14.1054 44.4804 14 44.7348 14 45C14 45.2652 14.1054 45.5196 14.2929 45.7071C14.4804 45.8946 14.7348 46 15 46H27C27.2652 46 27.5196 45.8946 27.7071 45.7071C27.8946 45.5196 28 45.2652 28 45C28 44.7348 27.8946 44.4804 27.7071 44.2929C27.5196 44.1054 27.2652 44 27 44H15Z" fill="black"/>
<path fill-rule="evenodd" clip-rule="evenodd" d="M44 21C43.7348 21 43.4804 21.1054 43.2929 21.2929C43.1054 21.4804 43 21.7348 43 22C43 22.2652 43.1054 22.5196 43.2929 22.7071C43.4804 22.8946 43.7348 23 44 23H53C53.2652 23 53.5196 22.8946 53.7071 22.7071C53.8946 22.5196 54 22.2652 54 22C54 21.7348 53.8946 21.4804 53.7071 21.2929C53.5196 21.1054 53.2652 21 53 21H44Z" fill="black"/>
<path fill-rule="evenodd" clip-rule="evenodd" d="M36 21C35.4477 21 35 21.4477 35 22C35 22.5523 35.4477 23 36 23C36.5523 23 37 22.5523 37 22C37 21.4477 36.5523 21 36 21Z" fill="black"/>
<path fill-rule="evenodd" clip-rule="evenodd" d="M44 37C43.7348 37 43.4804 37.1054 43.2929 37.2929C43.1054 37.4804 43 37.7348 43 38C43 38.2652 43.1054 38.5196 43.2929 38.7071C43.4804 38.8946 43.7348 39 44 39H53C53.2652 39 53.5196 38.8946 53.7071 38.7071C53.8946 38.5196 54 38.2652 54 38C54 37.7348 53.8946 37.4804 53.7071 37.2929C53.5196 37.1054 53.2652 37 53 37H44Z" fill="black"/>
<path fill-rule="evenodd" clip-rule="evenodd" d="M36 37C35.4477 37 35 37.4477 35 38C35 38.5523 35.4477 39 36 39C36.5523 39 37 38.5523 37 38C37 37.4477 36.5523 37 36 37Z" fill="black"/>
<path fill-rule="evenodd" clip-rule="evenodd" d="M36 29C35.7348 29 35.4804 29.1054 35.2929 29.2929C35.1054 29.4804 35 29.7348 35 30C35 30.2652 35.1054 30.5196 35.2929 30.7071C35.4804 30.8946 35.7348 31 36 31H53C53.2652 31 53.5196 30.8946 53.7071 30.7071C53.8946 30.5196 54 30.2652 54 30C54 29.7348 53.8946 29.4804 53.7071 29.2929C53.5196 29.1054 53.2652 29 53 29H36Z" fill="black"/>
<path fill-rule="evenodd" clip-rule="evenodd" d="M36 46C35.7348 46 35.4804 46.1054 35.2929 46.2929C35.1054 46.4804 35 46.7348 35 47C35 47.2652 35.1054 47.5196 35.2929 47.7071C35.4804 47.8946 35.7348 48 36 48H53C53.2652 48 53.5196 47.8946 53.7071 47.7071C53.8946 47.5196 54 47.2652 54 47C54 46.7348 53.8946 46.4804 53.7071 46.2929C53.5196 46.1054 53.2652 46 53 46H36Z" fill="black"/>
<path fill-rule="evenodd" clip-rule="evenodd" d="M24 24C24 24.3939 23.9224 24.784 23.7716 25.148C23.6209 25.512 23.3999 25.8427 23.1213 26.1213C22.8427 26.3999 22.512 26.6208 22.148 26.7716C21.7841 26.9224 21.394 27 21 27C20.606 27 20.2159 26.9224 19.8519 26.7716C19.488 26.6208 19.1572 26.3999 18.8787 26.1213C18.6001 25.8427 18.3791 25.512 18.2284 25.148C18.0776 24.784 18 24.3939 18 24C18 23.2043 18.3161 22.4413 18.8787 21.8787C19.4413 21.3161 20.2044 21 21 21C21.7956 21 22.5587 21.3161 23.1213 21.8787C23.6839 22.4413 24 23.2043 24 24Z" fill="#FFA221"/>
<path fill-rule="evenodd" clip-rule="evenodd" d="M16 33C16 29.6863 18.2386 27 21 27C23.7614 27 26 29.6863 26 33H16Z" fill="#FFA221"/>
<path fill-rule="evenodd" clip-rule="evenodd" d="M19.8262 21.2441C19.2853 21.4741 18.8239 21.8579 18.4992 22.3478C18.1746 22.8378 18.001 23.4123 18 24C18 24.394 18.0776 24.7841 18.2284 25.1481C18.3791 25.512 18.6001 25.8428 18.8787 26.1213C19.1573 26.3999 19.488 26.6209 19.852 26.7716C20.2159 26.9224 20.606 27 21 27C21.2308 26.9998 21.4609 26.9729 21.6855 26.9199C21.4742 24.7257 20.8174 22.7209 19.8262 21.2441Z" fill="#FFC343"/>
<path fill-rule="evenodd" clip-rule="evenodd" d="M21 27C18.2386 27 16 29.6863 16 33H21.0723C21.5207 31.6033 21.7568 30.043 21.7598 28.457C21.7598 27.989 21.7396 27.5217 21.6992 27.0586C21.4708 27.0202 21.2373 27 21 27Z" fill="#FFC343"/>
<path fill-rule="evenodd" clip-rule="evenodd" d="M21 20C18.8027 20 17 21.8027 17 24C17 25.0967 17.4488 26.0953 18.1719 26.8203C16.2574 28.0148 15 30.3786 15 33C15 33.2652 15.1054 33.5196 15.2929 33.7071C15.4805 33.8946 15.7348 34 16 34H20C20.2652 34 20.5196 33.8947 20.7071 33.7071C20.8947 33.5196 21 33.2652 21 33C21 32.7348 20.8947 32.4804 20.7071 32.2929C20.5196 32.1054 20.2652 32 20 32H17.1641C17.5559 29.6759 19.1527 28 21 28C22.8473 28 24.4441 29.6759 24.8359 32H24C23.7348 32 23.4804 32.1054 23.2929 32.2929C23.1054 32.4804 23 32.7348 23 33C23 33.2652 23.1054 33.5196 23.2929 33.7071C23.4804 33.8947 23.7348 34 24 34H26C26.2652 34 26.5196 33.8946 26.7071 33.7071C26.8946 33.5196 27 33.2652 27 33C27 30.3786 25.7426 28.0148 23.8281 26.8203C24.5512 26.0953 25 25.0967 25 24C25 21.8027 23.1973 20 21 20ZM21 22C22.1164 22 23 22.8836 23 24C23 25.1164 22.1164 26 21 26C19.8836 26 19 25.1164 19 24C19 22.8836 19.8836 22 21 22Z" fill="black"/>
</svg>
