<svg width="64" height="64" viewBox="0 0 64 64" fill="none" xmlns="http://www.w3.org/2000/svg">
<path fill-rule="evenodd" clip-rule="evenodd" d="M10 9H59V15H10V9Z" fill="#3E4F59"/>
<path fill-rule="evenodd" clip-rule="evenodd" d="M10 15H59V55H10V15Z" fill="#ACBEC2"/>
<path fill-rule="evenodd" clip-rule="evenodd" d="M10 15V55H39.7695C45.5448 49.7879 50.3749 43.2401 53.679 36.1441C56.9831 29.048 58.6206 21.7057 58.3945 15H10Z" fill="#E8EDEE"/>
<path fill-rule="evenodd" clip-rule="evenodd" d="M12 8C10.355 8 9 9.355 9 11V51C9 51.5523 9.44772 52 10 52C10.5523 52 11 51.5523 11 51V11C11 10.4359 11.4359 10 12 10H57C57.5641 10 58 10.4359 58 11V14H16C15.4477 14 15 14.4477 15 15C15 15.5523 15.4477 16 16 16H58V53C58 53.5641 57.5641 54 57 54H8C7.44772 54 7 54.4477 7 55C7 55.5523 7.44772 56 8 56H57C58.645 56 60 54.645 60 53C60 39 60 25 60 11C60 9.355 58.645 8 57 8H12Z" fill="black"/>
<path fill-rule="evenodd" clip-rule="evenodd" d="M55 11C54.4477 11 54 11.4477 54 12C54 12.5523 54.4477 13 55 13C55.5523 13 56 12.5523 56 12C56 11.4477 55.5523 11 55 11Z" fill="#ED7161"/>
<path fill-rule="evenodd" clip-rule="evenodd" d="M51 11C50.4477 11 50 11.4477 50 12C50 12.5523 50.4477 13 51 13C51.5523 13 52 12.5523 52 12C52 11.4477 51.5523 11 51 11Z" fill="#ECBA16"/>
<path fill-rule="evenodd" clip-rule="evenodd" d="M47 11C46.4477 11 46 11.4477 46 12C46 12.5523 46.4477 13 47 13C47.5523 13 48 12.5523 48 12C48 11.4477 47.5523 11 47 11Z" fill="#42B05C"/>
<path fill-rule="evenodd" clip-rule="evenodd" d="M5 54C4.73478 54 4.48043 54.1054 4.29289 54.2929C4.10536 54.4804 4 54.7348 4 55C4 55.2652 4.10536 55.5196 4.29289 55.7071C4.48043 55.8946 4.73478 56 5 56C5.26522 56 5.51957 55.8946 5.70711 55.7071C5.89464 55.5196 6 55.2652 6 55C6 54.7348 5.89464 54.4804 5.70711 54.2929C5.51957 54.1054 5.26522 54 5 54Z" fill="black"/>
<path fill-rule="evenodd" clip-rule="evenodd" d="M13 14C12.4477 14 12 14.4477 12 15C12 15.5523 12.4477 16 13 16C13.5523 16 14 15.5523 14 15C14 14.4477 13.5523 14 13 14Z" fill="black"/>
<path fill-rule="evenodd" clip-rule="evenodd" d="M26 25C30.1421 25.0516 32.8129 23.3191 35 21C37.3868 23.7638 40.4402 24.9727 44 25V32C44 36.9706 39.9706 41 35 41C30.0294 41 26 36.9706 26 32V25Z" fill="#0075D3"/>
<path fill-rule="evenodd" clip-rule="evenodd" d="M30.5898 24.1758C29.2776 24.7145 27.7747 25.0221 26 25V32C26 36.9706 30.0294 41 35 41C37.1102 41 39.0493 40.2728 40.584 39.0566C40.8544 38.0601 40.9943 37.0326 41 36C40.9992 33.1003 39.9418 30.3003 38.0257 28.1239C36.1096 25.9475 33.4661 24.5439 30.5898 24.1758Z" fill="#0588E2"/>
<path fill-rule="evenodd" clip-rule="evenodd" d="M39.3653 28.4766L33.3575 33.4122L31.9044 30.3243C31.7914 30.0846 31.5878 29.8995 31.3384 29.8097C31.089 29.72 30.8142 29.733 30.5743 29.8458C30.3346 29.9588 30.1495 30.1624 30.0598 30.4118C29.97 30.6612 29.983 30.936 30.0958 31.1759L32.0958 35.4259C32.1606 35.5635 32.2559 35.6846 32.3745 35.7799C32.4932 35.8752 32.632 35.9421 32.7804 35.9757C32.9288 36.0092 33.0829 36.0084 33.231 35.9734C33.3791 35.9383 33.5172 35.87 33.6349 35.7735L40.6349 30.0235C40.7365 29.9402 40.8207 29.8377 40.8827 29.7218C40.9447 29.6059 40.9832 29.4789 40.9961 29.3482C41.009 29.2174 40.9959 29.0853 40.9578 28.9596C40.9196 28.8338 40.857 28.7169 40.7735 28.6153C40.6902 28.5137 40.5877 28.4295 40.4718 28.3675C40.3559 28.3055 40.229 28.267 40.0982 28.2541C39.9674 28.2412 39.8353 28.2543 39.7096 28.2924C39.5839 28.3306 39.4669 28.3932 39.3653 28.4766Z" fill="black"/>
<path fill-rule="evenodd" clip-rule="evenodd" d="M22 45H47C48.108 45 49 45.892 49 47C49 48.108 48.108 49 47 49H22C20.892 49 20 48.108 20 47C20 45.892 20.892 45 22 45Z" fill="#FFA221"/>
<path fill-rule="evenodd" clip-rule="evenodd" d="M22 45C20.892 45 20 45.892 20 47H43C44.108 47 45 46.108 45 45H22Z" fill="#FFC343"/>
<path d="M42.959 49H22C20.892 49 20 48.108 20 47C20 45.892 20.892 45 22 45M26 45H47C48.108 45 49 45.892 49 47C49 48.108 48.108 49 47 49" stroke="black" stroke-width="2" stroke-miterlimit="4.1" stroke-linecap="round" stroke-linejoin="round"/>
<path fill-rule="evenodd" clip-rule="evenodd" d="M34.3457 20.2422C34.2461 20.328 34.1643 20.4326 34.1052 20.5501C34.046 20.6676 34.0106 20.7956 34.001 20.9267C33.9914 21.0579 34.0077 21.1897 34.0491 21.3145C34.0905 21.4394 34.1561 21.5548 34.2422 21.6543C36.5795 24.3607 39.6243 25.6584 43 25.9023V32C43 33.2893 42.697 34.5002 42.1582 35.5761C42.0394 35.8131 42.0196 36.0876 42.1031 36.3392C42.1866 36.5908 42.3666 36.799 42.6035 36.9179C42.721 36.9771 42.8489 37.0124 42.9801 37.0221C43.1112 37.0317 43.2429 37.0153 43.3678 36.974C43.4926 36.9326 43.608 36.867 43.7074 36.781C43.8069 36.695 43.8884 36.5902 43.9473 36.4726C44.6214 35.1265 45 33.6039 45 32V25C45 24.7361 44.8957 24.483 44.7098 24.2957C44.524 24.1083 44.2717 24.0021 44.0078 24C40.67 23.9744 37.9612 22.8994 35.7559 20.3457C35.5826 20.145 35.3366 20.0214 35.0722 20.002C34.8078 19.9825 34.5464 20.0689 34.3457 20.2422ZM31.5293 22.5898C30.0434 23.4841 28.3097 24.0286 26.0117 24C25.8794 23.9984 25.7481 24.0232 25.6255 24.0727C25.5028 24.1223 25.3912 24.1957 25.2971 24.2887C25.203 24.3817 25.1282 24.4925 25.0773 24.6146C25.0263 24.7367 25 24.8677 25 25V32C25 37.511 29.489 42 35 42C37.1022 42 39.0622 41.3485 40.6738 40.2363C40.7822 40.1618 40.8748 40.0666 40.9463 39.9562C41.0178 39.8458 41.0669 39.7224 41.0907 39.5931C41.1144 39.4637 41.1124 39.3309 41.0848 39.2024C41.0572 39.0738 41.0045 38.9519 40.9297 38.8437C40.855 38.7355 40.7597 38.6431 40.6493 38.5717C40.5388 38.5004 40.4154 38.4516 40.2861 38.428C40.1567 38.4044 40.024 38.4066 39.8955 38.4343C39.7669 38.4621 39.6452 38.5149 39.5371 38.5898C38.2472 39.4801 36.6899 40 35 40C30.5699 40 27 36.4301 27 32V25.8769C29.153 25.7429 31.0319 25.2227 32.5605 24.3027C32.673 24.2349 32.7711 24.1455 32.849 24.0398C32.927 23.9341 32.9833 23.8141 33.0149 23.6866C33.0465 23.5591 33.0526 23.4266 33.0329 23.2967C33.0133 23.1668 32.9683 23.0421 32.9004 22.9297C32.7634 22.703 32.5421 22.5399 32.2851 22.4762C32.0281 22.4125 31.7563 22.4534 31.5293 22.5898Z" fill="black"/>
</svg>
