<svg width="64" height="64" viewBox="0 0 64 64" fill="none" xmlns="http://www.w3.org/2000/svg">
<path fill-rule="evenodd" clip-rule="evenodd" d="M10 9H59V15H10V9Z" fill="#3E4F59"/>
<path fill-rule="evenodd" clip-rule="evenodd" d="M10 15H59V55H10V15Z" fill="#ACBEC2"/>
<path fill-rule="evenodd" clip-rule="evenodd" d="M10 15V55H39.7695C45.5448 49.7879 50.3748 43.2401 53.679 36.144C56.9831 29.048 58.6206 21.7057 58.3945 15H10Z" fill="#E8EDEE"/>
<path fill-rule="evenodd" clip-rule="evenodd" d="M12 8C10.355 8 9 9.355 9 11V51C9 51.5523 9.44772 52 10 52C10.5523 52 11 51.5523 11 51V11C11 10.4359 11.4359 10 12 10H57C57.5641 10 58 10.4359 58 11V14H16C15.4477 14 15 14.4477 15 15C15 15.5523 15.4477 16 16 16H58V53C58 53.5641 57.5641 54 57 54H8C7.44772 54 7 54.4477 7 55C7 55.5523 7.44772 56 8 56H57C58.645 56 60 54.645 60 53C60 39 60 25 60 11C60 9.355 58.645 8 57 8H12Z" fill="black"/>
<path fill-rule="evenodd" clip-rule="evenodd" d="M55 11C54.4477 11 54 11.4477 54 12C54 12.5523 54.4477 13 55 13C55.5523 13 56 12.5523 56 12C56 11.4477 55.5523 11 55 11Z" fill="#ED7161"/>
<path fill-rule="evenodd" clip-rule="evenodd" d="M51 11C50.4477 11 50 11.4477 50 12C50 12.5523 50.4477 13 51 13C51.5523 13 52 12.5523 52 12C52 11.4477 51.5523 11 51 11Z" fill="#ECBA16"/>
<path fill-rule="evenodd" clip-rule="evenodd" d="M47 11C46.4477 11 46 11.4477 46 12C46 12.5523 46.4477 13 47 13C47.5523 13 48 12.5523 48 12C48 11.4477 47.5523 11 47 11Z" fill="#42B05C"/>
<path fill-rule="evenodd" clip-rule="evenodd" d="M5 54C4.73478 54 4.48044 54.1054 4.29291 54.2929C4.10537 54.4804 4 54.7348 4 55C4 55.2652 4.10537 55.5196 4.29291 55.7071C4.48044 55.8946 4.73478 56 5 56C5.26522 56 5.51956 55.8946 5.70709 55.7071C5.89463 55.5196 6 55.2652 6 55C6 54.7348 5.89463 54.4804 5.70709 54.2929C5.51956 54.1054 5.26522 54 5 54Z" fill="black"/>
<path fill-rule="evenodd" clip-rule="evenodd" d="M13 14C12.4477 14 12 14.4477 12 15C12 15.5523 12.4477 16 13 16C13.5523 16 14 15.5523 14 15C14 14.4477 13.5523 14 13 14Z" fill="black"/>
<path fill-rule="evenodd" clip-rule="evenodd" d="M31.3708 25.1157L39.1161 23.8383C39.7433 23.7349 40.3502 24.1111 40.536 24.7184L42.8313 32.2189L32.6113 46.8079L23.0669 40.8921C22.8205 40.7394 22.6078 40.538 22.4419 40.3002C22.276 40.0625 22.1604 39.7933 22.1021 39.5093C22.0438 39.2253 22.0441 38.9324 22.1029 38.6486C22.1618 38.3647 22.2779 38.0958 22.4442 37.8583L31.3708 25.1157Z" fill="#0075D3"/>
<path fill-rule="evenodd" clip-rule="evenodd" d="M39.3495 23.8222C39.2725 23.8202 39.1936 23.8252 39.1152 23.8378L31.371 25.1151L26.207 32.4863C26.172 32.9107 26.1505 33.3369 26.1426 33.7636C26.1473 35.9305 26.5019 38.0721 27.1837 40.0507C27.8656 42.0292 28.8595 43.801 30.1016 45.2519L32.6113 46.8085L42.832 32.2187L40.5352 24.7187C40.3726 24.1873 39.8884 23.8332 39.3496 23.8222L39.3495 23.8222Z" fill="#0588E2"/>
<path fill-rule="evenodd" clip-rule="evenodd" d="M38.9532 22.8517L31.209 24.129C31.0774 24.1504 30.9513 24.1978 30.8383 24.2686C30.7253 24.3394 30.6275 24.432 30.5508 24.5411L28.1387 27.9865C27.9867 28.2038 27.9272 28.4726 27.9734 28.7337C28.0195 28.9949 28.1675 29.227 28.3848 29.379C28.6019 29.5313 28.8705 29.591 29.1316 29.5453C29.3928 29.4995 29.6251 29.3519 29.7774 29.1349L31.9493 26.0333L39.2793 24.8243C39.4201 24.8011 39.5387 24.8766 39.5801 25.0118L41.7325 32.0451L32.334 45.4591L23.5938 40.0431C23.0297 39.6935 22.883 38.9753 23.2637 38.4318L27.5743 32.2775C27.7263 32.0602 27.7858 31.7914 27.7396 31.5302C27.6935 31.2691 27.5455 31.0369 27.3282 30.8849C27.1109 30.7329 26.8421 30.6734 26.5809 30.7196C26.3198 30.7657 26.0876 30.9137 25.9356 31.131L21.6251 37.2853C20.6013 38.7466 21.0226 40.8023 22.5391 41.7423L32.084 47.6583C32.3013 47.7928 32.5618 47.8389 32.8121 47.7874C33.0623 47.7358 33.2833 47.5904 33.4297 47.381L43.6504 32.7931C43.7377 32.6685 43.7954 32.5256 43.8191 32.3753C43.8427 32.225 43.8318 32.0713 43.7872 31.9259L41.4922 24.4259C41.162 23.3465 40.0666 22.6681 38.9532 22.8517Z" fill="black"/>
<path fill-rule="evenodd" clip-rule="evenodd" d="M32 29.1179L38.5169 23.2826C39.0524 22.8101 39.8518 22.8101 40.3872 23.2826L47 29.1179V46.9999C47 48.1045 46.1046 48.9999 45 48.9999H34C32.8954 48.9999 32 48.1045 32 46.9999V29.1179Z" fill="#FFA221"/>
<path fill-rule="evenodd" clip-rule="evenodd" d="M34.7129 26.6895L32 29.1172V47C32 48.1046 32.8954 49 34 49H41.4902C43.2668 46.5234 44.236 43.487 44.248 40.3594C44.2473 37.2786 43.3177 34.2811 41.5985 31.8165C39.8794 29.3518 37.4634 27.5529 34.7129 26.6895Z" fill="#FFC343"/>
<path fill-rule="evenodd" clip-rule="evenodd" d="M39.4531 33.7637C39.3243 33.7637 39.1966 33.7901 39.0776 33.8414C38.9586 33.8928 38.8504 33.968 38.7593 34.0629C38.6683 34.1578 38.5961 34.2704 38.5469 34.3943C38.4977 34.5183 38.4725 34.6511 38.4727 34.7852V35.7187C37.376 36.1254 36.5684 37.1927 36.5684 38.4609C36.5684 40.0851 37.8935 41.3809 39.4531 41.3809C39.9976 41.3809 40.375 41.7865 40.375 42.2598C40.375 42.7331 39.9976 43.1387 39.4531 43.1387C38.9087 43.1387 38.5273 42.7331 38.5273 42.2598C38.5275 42.1257 38.5023 41.9929 38.4531 41.8689C38.4039 41.745 38.3317 41.6324 38.2407 41.5375C38.1496 41.4426 38.0414 41.3674 37.9224 41.316C37.8034 41.2647 37.6757 41.2383 37.5469 41.2383C37.2869 41.2388 37.0379 41.3467 36.8544 41.5382C36.6709 41.7298 36.568 41.9893 36.5684 42.2598C36.5684 43.528 37.376 44.5953 38.4727 45.0019V45.9375C38.4728 46.208 38.5761 46.4673 38.76 46.6585C38.9439 46.8497 39.1932 46.9571 39.4531 46.957C39.7127 46.9565 39.9615 46.8489 40.145 46.6578C40.3284 46.4666 40.4315 46.2076 40.4316 45.9375V45.0019C41.5292 44.5957 42.3379 43.5286 42.3379 42.2598C42.3379 40.6357 41.0128 39.3398 39.4531 39.3398C38.9086 39.3398 38.5273 38.9343 38.5273 38.4609C38.5273 37.9876 38.9086 37.582 39.4531 37.582C39.9976 37.582 40.375 37.9876 40.375 38.4609C40.3748 38.5952 40.4001 38.7282 40.4494 38.8522C40.4987 38.9763 40.5711 39.089 40.6624 39.1839C40.7536 39.2788 40.862 39.354 40.9813 39.4053C41.1006 39.4565 41.2284 39.4827 41.3574 39.4824C41.4863 39.4824 41.6139 39.456 41.7329 39.4047C41.852 39.3533 41.9601 39.2781 42.0512 39.1832C42.1423 39.0883 42.2145 38.9757 42.2637 38.8518C42.3129 38.7278 42.3381 38.595 42.3379 38.4609C42.3379 37.1921 41.5292 36.125 40.4316 35.7187V34.7852C40.432 34.5147 40.3291 34.2552 40.1456 34.0636C39.9622 33.8721 39.7131 33.7642 39.4531 33.7637Z" fill="black"/>
<path fill-rule="evenodd" clip-rule="evenodd" d="M41.4521 29C41.4521 30.1045 40.5567 30.9999 39.4521 30.9999C38.3476 30.9999 37.4521 30.1045 37.4521 29C37.4521 27.8954 38.3476 27 39.4521 27C40.5567 27 41.4521 27.8954 41.4521 29Z" fill="#0075D3"/>
<path fill-rule="evenodd" clip-rule="evenodd" d="M39.4512 20C38.8989 20 38.4512 20.4477 38.4512 21V26.1738C37.2908 26.5895 36.4512 27.7047 36.4512 29C36.4512 30.645 37.8062 32 39.4512 32C41.0962 32 42.4512 30.645 42.4512 29C42.4512 27.7047 41.6116 26.5895 40.4512 26.1738V21C40.4512 20.4477 40.0035 20 39.4512 20ZM39.4512 28C40.0153 28 40.4512 28.4359 40.4512 29C40.4512 29.5641 40.0153 30 39.4512 30C38.887 30 38.4512 29.5641 38.4512 29C38.4512 28.4359 38.887 28 39.4512 28Z" fill="black"/>
<path fill-rule="evenodd" clip-rule="evenodd" d="M39.4512 21.9336C38.8792 21.9336 38.3083 22.1336 37.8555 22.5332C37.8535 22.5345 37.8515 22.5359 37.8495 22.5372L31.3319 28.3731C31.2274 28.4669 31.1439 28.5816 31.0867 28.7098C31.0295 28.838 31 28.9768 31 29.1172V47C31 48.645 32.355 50 34 50H45C46.645 50 48 48.645 48 47C48 46.7348 47.8946 46.4804 47.7071 46.2929C47.5196 46.1054 47.2652 46 47 46C46.7348 46 46.4804 46.1054 46.2929 46.2929C46.1054 46.4804 46 46.7348 46 47C46 47.5641 45.5641 48 45 48H34C33.4359 48 33 47.5641 33 47V29.5645L39.1777 24.0332C39.3429 23.8875 39.5595 23.8875 39.7246 24.0332L46 29.5684V43C46 43.2652 46.1054 43.5196 46.2929 43.7071C46.4804 43.8946 46.7348 44 47 44C47.2652 44 47.5196 43.8946 47.7071 43.7071C47.8946 43.5196 48 43.2652 48 43V29.1172C48.0001 28.9754 47.97 28.8351 47.9117 28.7058C47.8535 28.5765 47.7684 28.4611 47.6621 28.3672L41.0488 22.5332C40.596 22.1336 40.0231 21.9336 39.4512 21.9336Z" fill="black"/>
</svg>
