<svg width="64" height="64" viewBox="0 0 64 64" fill="none" xmlns="http://www.w3.org/2000/svg">
<path fill-rule="evenodd" clip-rule="evenodd" d="M10 9H59V15H10V9Z" fill="#3E4F59"/>
<path fill-rule="evenodd" clip-rule="evenodd" d="M10 15H59V55H10V15Z" fill="#ACBEC2"/>
<path fill-rule="evenodd" clip-rule="evenodd" d="M10 15V55H39.7695C45.5448 49.7879 50.3749 43.2401 53.679 36.1441C56.9831 29.048 58.6206 21.7057 58.3945 15H10Z" fill="#E8EDEE"/>
<path fill-rule="evenodd" clip-rule="evenodd" d="M48 34.8247C48 42.0044 42.1797 47.8247 35 47.8247C27.8203 47.8247 22 42.0044 22 34.8247C22 27.645 27.8203 21.8247 35 21.8247C42.1797 21.8247 48 27.645 48 34.8247Z" fill="#FFA221"/>
<path fill-rule="evenodd" clip-rule="evenodd" d="M12 8C10.355 8 9 9.35499 9 11V51C9 51.5523 9.44772 52 10 52C10.5523 52 11 51.5523 11 51V11C11 10.4359 11.4359 10 12 10H57C57.5641 10 58 10.4359 58 11V14H16C15.4477 14 15 14.4477 15 15C15 15.5523 15.4477 16 16 16H58V53C58 53.5641 57.5641 54 57 54H8C7.44772 54 7 54.4477 7 55C7 55.5523 7.44772 56 8 56H57C58.645 56 60 54.645 60 53C60 39 60 25 60 11C60 9.35499 58.645 8 57 8H12Z" fill="black"/>
<path fill-rule="evenodd" clip-rule="evenodd" d="M55 11C54.4477 11 54 11.4477 54 12C54 12.5523 54.4477 13 55 13C55.5523 13 56 12.5523 56 12C56 11.4477 55.5523 11 55 11Z" fill="#ED7161"/>
<path fill-rule="evenodd" clip-rule="evenodd" d="M51 11C50.4477 11 50 11.4477 50 12C50 12.5523 50.4477 13 51 13C51.5523 13 52 12.5523 52 12C52 11.4477 51.5523 11 51 11Z" fill="#ECBA16"/>
<path fill-rule="evenodd" clip-rule="evenodd" d="M47 11C46.4477 11 46 11.4477 46 12C46 12.5523 46.4477 13 47 13C47.5523 13 48 12.5523 48 12C48 11.4477 47.5523 11 47 11Z" fill="#42B05C"/>
<path fill-rule="evenodd" clip-rule="evenodd" d="M5 54C4.73478 54 4.48043 54.1054 4.29289 54.2929C4.10536 54.4804 4 54.7348 4 55C4 55.2652 4.10536 55.5196 4.29289 55.7071C4.48043 55.8946 4.73478 56 5 56C5.26522 56 5.51957 55.8946 5.70711 55.7071C5.89464 55.5196 6 55.2652 6 55C6 54.7348 5.89464 54.4804 5.70711 54.2929C5.51957 54.1054 5.26522 54 5 54Z" fill="black"/>
<path fill-rule="evenodd" clip-rule="evenodd" d="M13 14C12.4477 14 12 14.4477 12 15C12 15.5523 12.4477 16 13 16C13.5523 16 14 15.5523 14 15C14 14.4477 13.5523 14 13 14Z" fill="black"/>
<path fill-rule="evenodd" clip-rule="evenodd" d="M35 21.8242C27.8203 21.8242 22 27.6445 22 34.8242C22 41.1606 26.5349 46.4356 32.5352 47.5879C39.1142 45.2414 43.8242 38.9592 43.8242 31.5742C43.8242 28.7931 43.1528 26.171 41.9688 23.8535C39.954 22.571 37.5653 21.8242 35 21.8242Z" fill="#FFC343"/>
<path fill-rule="evenodd" clip-rule="evenodd" d="M37 41.8247C37 42.3551 36.7893 42.8638 36.4142 43.2389C36.0391 43.614 35.5304 43.8247 35 43.8247C34.4696 43.8247 33.9609 43.614 33.5858 43.2389C33.2107 42.8638 33 42.3551 33 41.8247C33 41.2943 33.2107 40.7856 33.5858 40.4105C33.9609 40.0354 34.4696 39.8247 35 39.8247C35.5304 39.8247 36.0391 40.0354 36.4142 40.4105C36.7893 40.7856 37 41.2943 37 41.8247Z" fill="#FE93D3"/>
<path fill-rule="evenodd" clip-rule="evenodd" d="M35 38.8242C33.355 38.8242 32 40.1792 32 41.8242C32 43.4692 33.355 44.8242 35 44.8242C36.645 44.8242 38 43.4692 38 41.8242C38 40.1792 36.645 38.8242 35 38.8242ZM35 40.8242C35.5641 40.8242 36 41.2601 36 41.8242C36 42.3883 35.5641 42.8242 35 42.8242C34.4359 42.8242 34 42.3883 34 41.8242C34 41.2601 34.4359 40.8242 35 40.8242Z" fill="black"/>
<path fill-rule="evenodd" clip-rule="evenodd" d="M37 31.5747C37 32.9671 36.7893 34.3025 36.4142 35.287C36.0391 36.2716 35.5304 36.8247 35 36.8247C34.4696 36.8247 33.9609 36.2716 33.5858 35.287C33.2107 34.3025 33 32.9671 33 31.5747C33 30.1823 33.2107 28.847 33.5858 27.8624C33.9609 26.8778 34.4696 26.3247 35 26.3247C35.5304 26.3247 36.0391 26.8778 36.4142 27.8624C36.7893 28.847 37 30.1823 37 31.5747Z" fill="#FE93D3"/>
<path fill-rule="evenodd" clip-rule="evenodd" d="M35 20.8242C27.2799 20.8242 21 27.1041 21 34.8242C21 34.9555 21.0259 35.0856 21.0761 35.2069C21.1264 35.3282 21.2 35.4385 21.2929 35.5313C21.3858 35.6242 21.496 35.6978 21.6173 35.7481C21.7386 35.7984 21.8687 35.8242 22 35.8242C22.1313 35.8242 22.2614 35.7984 22.3827 35.7481C22.504 35.6978 22.6142 35.6242 22.7071 35.5313C22.8 35.4385 22.8736 35.3282 22.9239 35.2069C22.9741 35.0856 23 34.9555 23 34.8242C23 28.185 28.3607 22.8242 35 22.8242C38.3454 22.8242 41.3586 24.1881 43.5352 26.3906C43.7216 26.5792 43.9754 26.6859 44.2406 26.6873C44.5058 26.6888 44.7607 26.5849 44.9492 26.3984C45.138 26.2122 45.2452 25.9586 45.2471 25.6935C45.2489 25.4283 45.1454 25.1732 44.9592 24.9844C42.4221 22.4172 38.8901 20.8242 35 20.8242ZM46.1016 27.9824C45.9848 28.0427 45.8811 28.1253 45.7964 28.2257C45.7116 28.326 45.6474 28.4421 45.6075 28.5672C45.5676 28.6924 45.5528 28.8242 45.5638 28.9551C45.5749 29.0859 45.6116 29.2134 45.6719 29.3301C46.5213 30.9761 47 32.8402 47 34.8242C47 41.4635 41.6393 46.8242 35 46.8242C29.7575 46.8242 25.3138 43.4721 23.6738 38.8027C23.5858 38.553 23.4022 38.3484 23.1635 38.2338C22.9248 38.1192 22.6503 38.1039 22.4004 38.1914C22.1503 38.2791 21.9452 38.4624 21.8302 38.7012C21.7152 38.94 21.6997 39.2146 21.7871 39.4648C23.7027 44.919 28.904 48.8242 35 48.8242C42.7201 48.8242 49 42.5444 49 34.8242C49 32.5172 48.4407 30.3334 47.4492 28.4121C47.389 28.2954 47.3063 28.1917 47.206 28.1069C47.1056 28.0221 46.9896 27.958 46.8644 27.9181C46.7393 27.8782 46.6075 27.8633 46.4766 27.8744C46.3457 27.8854 46.2183 27.9221 46.1016 27.9824Z" fill="black"/>
<path fill-rule="evenodd" clip-rule="evenodd" d="M35 25.3242C34.3692 25.3242 33.839 25.6681 33.4785 26.0684C33.118 26.4686 32.8615 26.9518 32.6504 27.5059C32.2282 28.6141 32 30.0215 32 31.5742C32 33.1269 32.2282 34.5344 32.6504 35.6426C32.8615 36.1967 33.118 36.6818 33.4785 37.082C33.839 37.4823 34.3692 37.8242 35 37.8242C35.6308 37.8242 36.161 37.4823 36.5215 37.082C36.882 36.6818 37.1385 36.1967 37.3496 35.6426C37.7718 34.5344 38 33.1269 38 31.5742C38 31.309 37.8946 31.0546 37.7071 30.8671C37.5196 30.6796 37.2652 30.5742 37 30.5742C36.7348 30.5742 36.4804 30.6796 36.2929 30.8671C36.1054 31.0546 36 31.309 36 31.5742C36 32.921 35.7822 34.1397 35.4805 34.9316C35.3296 35.3276 35.1532 35.6111 35.0352 35.7422C34.9171 35.8732 34.9215 35.8242 35 35.8242C35.0785 35.8242 35.0829 35.8732 34.9648 35.7422C34.8467 35.6111 34.6703 35.3276 34.5195 34.9316C34.2178 34.1397 34 32.921 34 31.5742C34 30.2274 34.2178 29.0107 34.5195 28.2188C34.6704 27.8228 34.8468 27.5373 34.9648 27.4062C35.0829 27.2752 35.0785 27.3242 35 27.3242C34.9124 27.3242 34.9311 27.2729 35.0781 27.457C35.2252 27.6412 35.4221 28.0129 35.5801 28.5078C35.62 28.633 35.6843 28.7491 35.7691 28.8495C35.854 28.9499 35.9578 29.0325 36.0746 29.0928C36.1914 29.153 36.319 29.1896 36.4499 29.2005C36.5809 29.2114 36.7127 29.1964 36.8379 29.1563C37.0903 29.0756 37.3004 28.898 37.422 28.6625C37.5436 28.427 37.5667 28.1529 37.4863 27.9004C37.2775 27.2462 37.0167 26.6775 36.6426 26.209C36.2685 25.7405 35.7034 25.3242 35 25.3242Z" fill="black"/>
</svg>
