<svg width="50" height="40" viewBox="0 0 50 40" fill="none" xmlns="http://www.w3.org/2000/svg">
<path d="M24.3371 10.3771L8.33399 23.9366V38.5713C8.33399 38.9502 8.48031 39.3136 8.74076 39.5815C9.0012 39.8495 9.35445 40 9.72277 40L19.4495 39.9741C19.8166 39.9722 20.168 39.8209 20.427 39.5531C20.6859 39.2854 20.8313 38.9231 20.8313 38.5454V29.9989C20.8313 29.62 20.9776 29.2566 21.2381 28.9886C21.4985 28.7207 21.8517 28.5702 22.2201 28.5702H27.7752C28.1435 28.5702 28.4968 28.7207 28.7572 28.9886C29.0177 29.2566 29.164 29.62 29.164 29.9989V38.5391C29.1634 38.7271 29.1989 38.9134 29.2684 39.0872C29.338 39.2611 29.4402 39.4191 29.5692 39.5523C29.6982 39.6854 29.8515 39.7911 30.0203 39.8631C30.1891 39.9352 30.37 39.9723 30.5528 39.9723L40.276 40C40.6443 40 40.9975 39.8495 41.258 39.5815C41.5184 39.3136 41.6648 38.9502 41.6648 38.5713V23.9268L25.6651 10.3771C25.477 10.2211 25.2427 10.136 25.0011 10.136C24.7595 10.136 24.5252 10.2211 24.3371 10.3771ZM49.6155 19.5933L42.3591 13.4399V1.07155C42.3591 0.787356 42.2494 0.514804 42.0541 0.313849C41.8587 0.112895 41.5938 0 41.3176 0H36.4568C36.1806 0 35.9156 0.112895 35.7203 0.313849C35.525 0.514804 35.4152 0.787356 35.4152 1.07155V7.55531L27.6441 0.977788C26.8984 0.346449 25.9626 0.00126206 24.9968 0.00126206C24.031 0.00126206 23.0952 0.346449 22.3494 0.977788L0.378008 19.5933C0.272537 19.6829 0.185276 19.7931 0.121211 19.9175C0.0571465 20.0419 0.017534 20.1781 0.00463693 20.3182C-0.00826017 20.4583 0.00581089 20.5997 0.0460461 20.7343C0.0862814 20.8688 0.151892 20.9939 0.23913 21.1024L2.4525 23.8705C2.5395 23.9794 2.64651 24.0695 2.76741 24.1357C2.8883 24.2019 3.0207 24.243 3.15704 24.2565C3.29338 24.27 3.43096 24.2557 3.56193 24.2145C3.69289 24.1732 3.81467 24.1058 3.92027 24.0161L24.3371 6.71593C24.5252 6.55995 24.7595 6.47489 25.0011 6.47489C25.2427 6.47489 25.477 6.55995 25.6651 6.71593L46.0828 24.0161C46.1882 24.1058 46.3098 24.1733 46.4406 24.2147C46.5714 24.2561 46.7088 24.2706 46.845 24.2573C46.9813 24.244 47.1136 24.2033 47.2345 24.1374C47.3554 24.0715 47.4625 23.9817 47.5497 23.8732L49.7631 21.105C49.8502 20.996 49.9156 20.8702 49.9553 20.7351C49.9951 20.6 50.0085 20.4581 49.9948 20.3176C49.9811 20.1771 49.9405 20.0408 49.8754 19.9165C49.8103 19.7922 49.722 19.6823 49.6155 19.5933Z" fill="white"/>
</svg>
