<svg width="41" height="41" viewBox="0 0 41 41" fill="none" xmlns="http://www.w3.org/2000/svg">
<path d="M40.8571 20.2275C40.8571 31.2733 31.9028 40.2275 20.8571 40.2275C9.81139 40.2275 0.857117 31.2733 0.857117 20.2275C0.857117 9.18181 9.81139 0.227539 20.8571 0.227539C31.9028 0.227539 40.8571 9.18181 40.8571 20.2275ZM18.5437 30.8174L33.3824 15.9787C33.8863 15.4748 33.8863 14.6578 33.3824 14.1539L31.5577 12.3292C31.0538 11.8252 30.2368 11.8252 29.7328 12.3292L17.6313 24.4306L11.9814 18.7807C11.4775 18.2768 10.6605 18.2768 10.1566 18.7807L8.33179 20.6054C7.82792 21.1093 7.82792 21.9263 8.33179 22.4302L16.7189 30.8173C17.2228 31.3212 18.0398 31.3212 18.5437 30.8174Z" fill="white"/>
</svg>
