<svg width="40" height="40" viewBox="0 0 40 40" fill="none" xmlns="http://www.w3.org/2000/svg">
<path d="M20 0C8.95161 0 0 8.95161 0 20C0 31.0484 8.95161 40 20 40C31.0484 40 40 31.0484 40 20C40 8.95161 31.0484 0 20 0ZM29.8065 25.25C30.1855 25.629 30.1855 26.2419 29.8065 26.621L26.6129 29.8065C26.2339 30.1855 25.621 30.1855 25.2419 29.8065L20 24.5161L14.75 29.8065C14.371 30.1855 13.7581 30.1855 13.379 29.8065L10.1935 26.6129C9.81452 26.2339 9.81452 25.621 10.1935 25.2419L15.4839 20L10.1935 14.75C9.81452 14.371 9.81452 13.7581 10.1935 13.379L13.3871 10.1855C13.7661 9.80645 14.379 9.80645 14.7581 10.1855L20 15.4839L25.25 10.1935C25.629 9.81452 26.2419 9.81452 26.621 10.1935L29.8145 13.3871C30.1935 13.7661 30.1935 14.379 29.8145 14.7581L24.5161 20L29.8065 25.25Z" fill="white"/>
</svg>
