<svg width="127" height="115" viewBox="0 0 127 115" fill="none" xmlns="http://www.w3.org/2000/svg">
<path d="M119.037 6.45068H34.1158C30.9495 6.45068 28.3828 9.01741 28.3828 12.1836V107.157C28.3828 110.323 30.9495 112.89 34.1158 112.89H119.037C122.203 112.89 124.77 110.323 124.77 107.157V12.1836C124.77 9.01741 122.203 6.45068 119.037 6.45068Z" fill="white"/>
<path d="M124.766 17.9816V101.359C124.766 107.728 120.092 112.89 114.326 112.89H38.8254C33.3112 112.89 28.7935 108.159 28.418 102.187H101.409C107.177 102.187 111.849 97.0246 111.849 90.656V7.27854C111.849 6.99766 111.849 6.72565 111.816 6.45068H114.329C120.095 6.45068 124.766 11.613 124.766 17.9816Z" fill="#E7E7E7"/>
<path d="M119.036 114.664H34.1183C32.127 114.663 30.2175 113.872 28.8089 112.464C27.4003 111.057 26.6078 109.148 26.6055 107.157V12.1832C26.6078 10.193 27.3995 8.2849 28.8068 6.87759C30.2141 5.47028 32.1222 4.67862 34.1124 4.67627H119.036C121.026 4.6794 122.933 5.4714 124.34 6.87863C125.747 8.28586 126.538 10.1935 126.54 12.1832V107.157C126.538 109.146 125.747 111.054 124.34 112.461C122.933 113.868 121.026 114.66 119.036 114.664ZM34.1183 8.22425C33.0678 8.22425 32.0602 8.64116 31.3168 9.38344C30.5734 10.1257 30.155 11.1327 30.1534 12.1832V107.157C30.155 108.206 30.5726 109.212 31.3147 109.954C32.0568 110.696 33.0629 111.114 34.1124 111.116H119.036C120.085 111.113 121.09 110.695 121.832 109.953C122.573 109.211 122.991 108.206 122.992 107.157V12.1832C122.991 11.1337 122.573 10.1276 121.831 9.38552C121.089 8.64341 120.083 8.22581 119.033 8.22425H34.1183Z" fill="#426572"/>
<path d="M4.95452 2.65697C6.58172 1.54609 8.58351 1.12697 10.5197 1.49181C12.4558 1.85664 14.1678 2.97554 15.2791 4.60244L58.2747 67.5524C63.2408 74.8245 67.0804 82.8048 69.6637 91.2233L70.1693 92.8731C70.3514 93.4987 70.3302 94.1659 70.1089 94.7787C69.8876 95.3915 69.4776 95.9183 68.9378 96.2832C68.398 96.648 67.7564 96.8322 67.1053 96.8092C66.4541 96.7862 65.8271 96.5571 65.3145 96.155L64.1673 95.268C57.0946 89.7315 50.9167 83.1388 45.8509 75.7216L3.012 12.9786C1.90176 11.352 1.48273 9.35116 1.84697 7.41575C2.21121 5.48034 3.32893 3.7687 4.95452 2.65697Z" fill="#FF3F40"/>
<path d="M69.9889 93.8428C70.0081 94.4284 69.8597 95.0072 69.5612 95.5113C69.2628 96.0154 68.8267 96.4238 68.3042 96.6887C67.7816 96.9535 67.1944 97.0637 66.6114 97.0064C66.0283 96.949 65.4738 96.7265 65.0129 96.3649L63.8657 95.4779C56.7875 89.9427 50.6046 83.3499 45.5345 75.9315L2.70452 13.1885C2.02873 12.1977 1.60271 11.0581 1.46284 9.86696C1.32296 8.67584 1.47338 7.46856 1.90126 6.34817C2.32914 5.22779 3.02177 4.22758 3.92002 3.43292C4.81827 2.63826 5.89547 2.07275 7.05967 1.78467C6.18717 3.02198 5.71366 4.49639 5.70256 6.01034C5.69146 7.5243 6.14332 9.00549 6.99758 10.2555L49.8394 72.9837C54.9094 80.4021 61.0924 86.995 68.1706 92.5301L69.3178 93.4171C69.5231 93.5861 69.7485 93.7291 69.9889 93.8428Z" fill="#C6262F"/>
<path d="M28.0841 34.3594C28.5973 34.0019 26.8146 30.5557 24.1024 26.6619C21.3901 22.7682 18.7754 19.9015 18.2622 20.259C17.749 20.6165 19.5317 24.0627 22.244 27.9564C24.9562 31.8501 27.571 34.7168 28.0841 34.3594Z" fill="white"/>
<path d="M16.0677 16.9952C16.5809 16.6378 15.8975 14.7697 14.5414 12.8229C13.1853 10.876 11.6699 9.58757 11.1567 9.94504C10.6436 10.3025 11.3269 12.1705 12.683 14.1174C14.0391 16.0642 15.5545 17.3527 16.0677 16.9952Z" fill="white"/>
<path d="M67.2656 99.0113C66.1805 99.0071 65.1285 98.6374 64.2794 97.9617L63.1323 97.0747C55.9157 91.427 49.613 84.7005 44.4462 77.1321L1.60147 14.392C0.575642 12.8888 0.0184974 11.1151 0.000452623 9.29531C-0.0175921 7.47547 0.504273 5.69114 1.50009 4.16783C2.4959 2.64452 3.92096 1.45062 5.59515 0.737035C7.26934 0.023446 9.1175 -0.177798 10.906 0.158738C12.0939 0.378282 13.2265 0.830986 14.2384 1.4907C15.2503 2.15042 16.1215 3.00408 16.8016 4.00238L59.7942 66.9612C64.8629 74.3797 68.7813 82.5216 71.4168 91.1111L71.9224 92.7639C72.2248 93.7511 72.1999 94.8096 71.8514 95.7816C71.5029 96.7535 70.8495 97.5867 69.9887 98.1568C69.1872 98.7082 68.2385 99.0059 67.2656 99.0113ZM9.18822 3.5441C8.16024 3.5466 7.15238 3.82922 6.27297 4.36156C5.39356 4.89391 4.67586 5.65586 4.19702 6.56551C3.71817 7.47516 3.4963 8.49811 3.55523 9.52441C3.61416 10.5507 3.95168 11.5415 4.5315 12.3904L47.3763 75.1216C52.3378 82.3893 58.3902 88.8486 65.3202 94.2718L66.4674 95.1588C66.684 95.3345 66.9513 95.4362 67.23 95.4488C67.5087 95.4614 67.7841 95.3842 68.0157 95.2287C68.2473 95.0732 68.4229 94.8475 68.5167 94.5848C68.6106 94.3221 68.6177 94.0362 68.537 93.7691L68.0373 92.143C65.5074 83.8953 61.7455 76.0773 56.8789 68.954L13.8716 6.0129C13.4541 5.39884 12.9191 4.87363 12.2974 4.46764C11.6757 4.06164 10.9797 3.78292 10.2497 3.64758C9.89984 3.58013 9.54449 3.54549 9.18822 3.5441Z" fill="#426572"/>
<path d="M76.4287 95.002H104.221V98.5499H76.4287V95.002Z" fill="#426572"/>
<path d="M64.3057 60.708H104.22V64.256H64.3057V60.708Z" fill="#426572"/>
<path d="M64.3057 51.3208H104.22V54.8688H64.3057V51.3208Z" fill="#426572"/>
<path d="M64.3057 41.9331H104.22V45.4811H64.3057V41.9331Z" fill="#426572"/>
<path d="M64.3057 32.5459H104.22V36.0939H64.3057V32.5459Z" fill="#426572"/>
<path d="M64.3057 23.1587H104.22V26.7067H64.3057V23.1587Z" fill="#426572"/>
</svg>
