<svg width="215" height="164" viewBox="0 0 215 164" fill="none" xmlns="http://www.w3.org/2000/svg">
<path d="M140.526 12.3179H8.53744C4.53095 12.3179 1.28305 15.5658 1.28305 19.5723V52.3044C1.28305 56.3109 4.53095 59.5588 8.53744 59.5588H140.526C144.532 59.5588 147.78 56.3109 147.78 52.3044V19.5723C147.78 15.5658 144.532 12.3179 140.526 12.3179Z" fill="white"/>
<path d="M147.78 41.8853V56.7291C147.78 58.2928 144.63 59.5587 140.766 59.5587H8.30546C4.43053 59.5587 1.29164 58.2928 1.29164 56.7291V48.1373C10.2214 50.5029 20.3885 52.0981 30.8161 53.089C43.4175 54.2862 56.4055 54.6356 69.3391 54.6871C84.8045 54.7501 100.528 54.375 115.085 52.2757C128.425 50.3568 140.795 46.8198 147.78 41.8853Z" fill="#E8F0F9"/>
<path d="M140.388 60.7588H8.39997C6.17335 60.7565 4.03854 59.8712 2.46382 58.297C0.889092 56.7228 0.00303238 54.5883 0 52.3617L0 19.6267C0.00303238 17.4001 0.889092 15.2656 2.46382 13.6914C4.03854 12.1172 6.17335 11.2319 8.39997 11.2296H140.388C142.615 11.2319 144.75 12.1176 146.325 13.6924C147.9 15.2672 148.786 17.4025 148.788 19.6296V52.3646C148.784 54.5907 147.898 56.7245 146.323 58.298C144.749 59.8716 142.614 60.7565 140.388 60.7588ZM8.39997 13.5208C6.78078 13.5223 5.22829 14.166 4.08308 15.3107C2.93786 16.4553 2.29344 18.0075 2.29116 19.6267V52.3617C2.29268 53.9814 2.93677 55.5343 4.08207 56.6796C5.22736 57.8249 6.78028 58.469 8.39997 58.4705H140.388C142.008 58.469 143.561 57.8249 144.706 56.6796C145.851 55.5343 146.495 53.9814 146.497 52.3617V19.6267C146.495 18.007 145.851 16.4541 144.706 15.3088C143.561 14.1635 142.008 13.5194 140.388 13.5179L8.39997 13.5208Z" fill="#314E5D"/>
<path d="M206.683 85.635H55.8127C51.8062 85.635 48.5583 88.8829 48.5583 92.8894V125.622C48.5583 129.628 51.8062 132.876 55.8127 132.876H206.683C210.689 132.876 213.937 129.628 213.937 125.622V92.8894C213.937 88.8829 210.689 85.635 206.683 85.635Z" fill="white"/>
<path d="M213.937 115.203V130.046C213.937 131.61 210.392 132.876 206.018 132.876H56.4771C52.1039 132.876 48.5583 131.61 48.5583 130.046V121.455C58.6394 123.82 70.1181 125.415 81.889 126.406C96.0999 127.603 110.775 127.953 125.378 128.004C142.831 128.067 160.588 127.692 177.021 125.593C192.088 123.674 206.053 120.137 213.937 115.203Z" fill="#E8F0F9"/>
<path d="M108.349 85.7525C92.7692 86.6862 71.1177 85.784 57.6829 89.2179C51.3048 90.8446 49.7325 94.0007 48.7044 96.6098L48.7244 89.3038C48.7244 88.3673 48.8132 87.3477 50.5058 86.6317C52.5994 85.7497 56.2738 85.6809 59.5101 85.6838C75.3993 85.6895 92.7749 85.0594 108.349 85.7525Z" fill="#FF4E4E"/>
<path d="M206.528 134.076H55.6552C53.4286 134.074 51.2938 133.188 49.719 131.614C48.1443 130.04 47.2583 127.905 47.2552 125.679V92.9438C47.2575 90.7167 48.1432 88.5814 49.718 87.0066C51.2928 85.4318 53.4281 84.5461 55.6552 84.5438H206.528C208.755 84.5461 210.891 85.4318 212.465 87.0066C214.04 88.5814 214.926 90.7167 214.928 92.9438V125.679C214.925 127.905 214.039 130.04 212.464 131.614C210.89 133.188 208.755 134.074 206.528 134.076ZM55.6552 86.8378C54.036 86.8394 52.4835 87.4831 51.3383 88.6277C50.1931 89.7724 49.5487 91.3246 49.5464 92.9438V125.679C49.5479 127.298 50.192 128.851 51.3373 129.997C52.4826 131.142 54.0355 131.786 55.6552 131.788H206.528C208.148 131.786 209.701 131.142 210.846 129.997C211.991 128.851 212.635 127.298 212.637 125.679V92.9438C212.635 91.3241 211.991 89.7712 210.846 88.6259C209.701 87.4806 208.148 86.8365 206.528 86.835L55.6552 86.8378Z" fill="#314E5D"/>
<path d="M185.713 0.968018H34.8629C30.8564 0.968018 27.6085 4.21592 27.6085 8.22241V142.883C27.6085 146.889 30.8564 150.137 34.8629 150.137H185.713C189.719 150.137 192.967 146.889 192.967 142.883V8.22241C192.967 4.21592 189.719 0.968018 185.713 0.968018Z" fill="#FF1D1D" fill-opacity="0.51"/>
<path d="M192.967 94.3329V141.193C192.967 146.127 189.422 150.126 185.049 150.126H35.513C31.1398 150.126 27.5942 146.116 27.5942 141.193V114.094C37.6753 121.563 49.1511 126.604 60.9191 129.734C75.1301 133.517 89.8021 134.623 104.403 134.783C121.855 134.981 139.606 133.795 156.04 127.165C171.121 121.088 185.086 109.913 192.967 94.3329Z" fill="#E11A1A" fill-opacity="0.09"/>
<path d="M87.3935 1.34316C71.8165 4.29589 50.1793 1.44626 36.733 12.2835C30.3579 17.4214 28.7856 27.3851 27.7574 35.6247L27.7803 12.5613C27.7803 9.60853 27.8691 6.38085 29.5617 4.12692C31.6553 1.34316 35.3297 1.12836 38.5631 1.12836C54.4466 1.14555 71.8193 -0.807669 87.3935 1.34316Z" fill="#FF4E4E"/>
<path d="M185.558 151.46H34.7054C32.4782 151.458 30.343 150.572 28.7682 148.997C27.1934 147.423 26.3077 145.287 26.3054 143.06V8.39997C26.3077 6.17286 27.1934 4.03761 28.7682 2.46281C30.343 0.888 32.4782 0.0022745 34.7054 0L185.558 0C187.785 0.0022745 189.921 0.888 191.495 2.46281C193.07 4.03761 193.956 6.17286 193.958 8.39997V143.063C193.955 145.29 193.069 147.424 191.494 148.998C189.92 150.573 187.785 151.458 185.558 151.46ZM34.7054 2.29116C33.0857 2.29268 31.5328 2.93677 30.3875 4.08207C29.2422 5.22736 28.5981 6.78028 28.5966 8.39997V143.063C28.5981 144.683 29.2422 146.236 30.3875 147.381C31.5328 148.526 33.0857 149.17 34.7054 149.172H185.558C187.178 149.17 188.731 148.526 189.876 147.381C191.022 146.236 191.666 144.683 191.667 143.063V8.39997C191.666 6.78028 191.022 5.22736 189.876 4.08207C188.731 2.93677 187.178 2.29268 185.558 2.29116H34.7054Z" fill="#314E5D"/>
<path d="M174.12 10.5852H47.1263C44.6177 10.5852 42.5841 12.6188 42.5841 15.1274V134.483C42.5841 136.991 44.6177 139.025 47.1263 139.025H174.12C176.628 139.025 178.662 136.991 178.662 134.483V15.1274C178.662 12.6188 176.628 10.5852 174.12 10.5852Z" fill="white"/>
<path d="M178.444 14.2281V39.1674H42.3578V14.2281C42.3578 12.315 44.3053 10.7627 46.7082 10.7627H174.094C176.497 10.7627 178.444 12.315 178.444 14.2281Z" fill="#DCEAEF"/>
<path d="M173.956 140.884H46.9688C45.4608 140.882 44.0149 140.282 42.9486 139.216C41.8823 138.15 41.2825 136.704 41.281 135.196V14.9098C41.2833 13.4023 41.8834 11.9572 42.9496 10.8914C44.0159 9.82571 45.4613 9.22637 46.9688 9.22485H173.956C175.465 9.22637 176.91 9.82611 177.977 10.8924C179.043 11.9588 179.643 13.4046 179.644 14.9127V135.199C179.642 136.706 179.042 138.151 177.976 139.217C176.909 140.283 175.464 140.882 173.956 140.884ZM46.9688 11.516C46.0684 11.5175 45.2054 11.8759 44.5687 12.5125C43.932 13.1492 43.5737 14.0123 43.5722 14.9127V135.199C43.5744 136.099 43.9331 136.961 44.5697 137.597C45.2063 138.233 46.0689 138.591 46.9688 138.592H173.956C174.857 138.591 175.72 138.233 176.357 137.596C176.993 136.959 177.352 136.096 177.353 135.196V14.9098C177.351 14.0099 176.992 13.1476 176.356 12.5115C175.719 11.8755 174.856 11.5175 173.956 11.516H46.9688Z" fill="#314E5D"/>
<path d="M57.7115 27.3765H115.589V32.3769H57.7115V27.3765Z" fill="white"/>
<path d="M84.2231 51.4738H55.9072V50.2852H84.2231V51.4738Z" fill="#CED5D8"/>
<path d="M117.537 54.0914H55.9072V52.9029H117.537V54.0914Z" fill="#CED5D8"/>
<path d="M84.2231 56.7091H55.9072V55.5206H84.2231V56.7091Z" fill="#CED5D8"/>
<path d="M117.537 59.3268H55.9072V58.1382H117.537V59.3268Z" fill="#CED5D8"/>
<path d="M84.2231 61.9445H55.9072V60.7559H84.2231V61.9445Z" fill="#CED5D8"/>
<path d="M117.537 64.5592H55.9072V63.3707H117.537V64.5592Z" fill="#CED5D8"/>
<path d="M84.2231 75.1272H55.9072V73.9387H84.2231V75.1272Z" fill="#CED5D8"/>
<path d="M117.537 77.7449H55.9072V76.5563H117.537V77.7449Z" fill="#CED5D8"/>
<path d="M84.2231 80.3625H55.9072V79.174H84.2231V80.3625Z" fill="#CED5D8"/>
<path d="M117.537 82.9801H55.9072V81.7916H117.537V82.9801Z" fill="#CED5D8"/>
<path d="M84.2231 85.5978H55.9072V84.4092H84.2231V85.5978Z" fill="#CED5D8"/>
<path d="M117.537 88.2126H55.9072V87.0241H117.537V88.2126Z" fill="#CED5D8"/>
<path d="M84.2231 98.7805H55.9072V97.592H84.2231V98.7805Z" fill="#CED5D8"/>
<path d="M117.537 101.398H55.9072V100.21H117.537V101.398Z" fill="#CED5D8"/>
<path d="M84.2231 104.016H55.9072V102.827H84.2231V104.016Z" fill="#CED5D8"/>
<path d="M117.537 106.634H55.9072V105.445H117.537V106.634Z" fill="#CED5D8"/>
<path d="M84.2231 109.251H55.9072V108.063H84.2231V109.251Z" fill="#CED5D8"/>
<path d="M117.537 111.866H55.9072V110.677H117.537V111.866Z" fill="#CED5D8"/>
<path d="M172.748 18.5928H151.492V16.0925H172.748V18.5928Z" fill="#EEA248"/>
<path d="M148.559 18.5928H127.303V16.0925H148.559V18.5928Z" fill="#EEA248"/>
<path d="M49.1197 19.7527C50.4515 19.7527 51.5311 18.6731 51.5311 17.3413C51.5311 16.0095 50.4515 14.9298 49.1197 14.9298C47.7878 14.9298 46.7082 16.0095 46.7082 17.3413C46.7082 18.6731 47.7878 19.7527 49.1197 19.7527Z" fill="#EEA248"/>
<path d="M126.683 115.045L134.372 107.753L149.974 124.206L142.285 131.497L126.683 115.045Z" fill="#314E5D"/>
<g opacity="0.5">
<path d="M127.701 108.013C137.722 98.5107 138.142 82.6839 128.639 72.6632C119.136 62.6425 103.31 62.2225 93.2888 71.7252C83.2681 81.2278 82.8482 97.0547 92.3508 107.075C101.853 117.096 117.68 117.516 127.701 108.013Z" fill="#7D2509"/>
<path d="M97.3171 104.319C94.7882 101.654 92.8781 98.4643 91.7228 94.9767C90.5675 91.489 90.1954 87.7896 90.6329 84.1417C91.0705 80.4939 92.307 76.9874 94.2543 73.8719C96.2017 70.7565 98.812 68.1087 101.899 66.1172C98.5959 67.3278 95.585 69.2219 93.0636 71.6757C90.5422 74.1295 88.567 77.0878 87.2671 80.3573C85.9672 83.6267 85.3719 87.1336 85.5201 90.6489C85.6683 94.1641 86.5567 97.6085 88.1271 100.757C89.6976 103.905 91.9148 106.687 94.6338 108.92C97.3528 111.153 100.512 112.787 103.906 113.715C107.3 114.643 110.851 114.845 114.328 114.306C117.805 113.768 121.129 112.502 124.084 110.591C119.497 112.275 114.518 112.578 109.761 111.463C105.004 110.349 100.678 107.865 97.3171 104.319Z" fill="#EE8B54"/>
</g>
<path d="M137.785 63.1731C135.06 60.2928 131.906 57.8515 128.434 55.9359C128.374 55.8986 128.314 55.8671 128.248 55.8356C120.222 51.4649 110.903 50.091 101.958 51.9593C93.0121 53.8276 85.0224 58.8165 79.4169 66.0341C73.8114 73.2517 70.9554 82.2276 71.3595 91.3574C71.7636 100.487 75.4014 109.176 81.6226 115.87C81.7114 115.97 81.8031 116.067 81.909 116.156C84.7537 119.163 88.0662 121.691 91.7181 123.64L91.8212 123.694C99.8916 127.963 109.216 129.225 118.131 127.256C127.046 125.287 134.971 120.215 140.493 112.944C146.015 105.674 148.774 96.6777 148.278 87.5614C147.782 78.4451 144.063 69.8016 137.785 63.1731ZM128.365 72.6642C131.768 76.2526 134.031 80.7696 134.867 85.644C135.703 90.5184 135.075 95.5313 133.062 100.049C131.049 104.566 127.742 108.385 123.559 111.023C119.375 113.661 114.504 114.999 109.56 114.868C104.616 114.737 99.822 113.143 95.7841 110.287C91.7462 107.432 88.6458 103.443 86.8749 98.8251C85.104 94.2074 84.7422 89.1683 85.8352 84.345C86.9282 79.5217 89.427 75.1309 93.0154 71.7277C95.3981 69.468 98.2025 67.6997 101.269 66.524C104.335 65.3482 107.602 64.7879 110.885 64.8752C114.168 64.9624 117.401 65.6954 120.4 67.0324C123.399 68.3693 126.106 70.284 128.365 72.6671V72.6642Z" fill="#E7E7E7"/>
<path d="M140.485 112.101C133.947 118.302 125.44 122.014 116.447 122.59C107.454 123.165 98.5431 120.569 91.2668 115.252C83.9906 109.936 78.8094 102.235 76.6254 93.4922C74.4414 84.7491 75.393 75.5169 79.3143 67.4031C76.1443 71.718 73.9089 76.6465 72.7508 81.8739C71.5927 87.1013 71.5373 92.5128 72.5882 97.7628C73.6391 103.013 75.7731 107.986 78.8541 112.365C81.9351 116.744 85.8953 120.432 90.4819 123.195C95.0685 125.957 100.181 127.732 105.492 128.408C110.803 129.083 116.197 128.644 121.329 127.118C126.461 125.591 131.219 123.012 135.298 119.543C139.377 116.075 142.688 111.794 145.019 106.974C143.662 108.814 142.145 110.529 140.485 112.101Z" fill="#CED0D0"/>
<path d="M110.165 129.528C103.571 129.531 97.0829 127.879 91.2942 124.722L91.151 124.645C82.7441 120.02 76.2917 112.513 72.9821 103.506C72.9076 103.311 72.836 103.108 72.7702 102.899C70.1558 95.3768 69.8665 87.2419 71.9399 79.5531C74.0132 71.8642 78.3533 64.9777 84.395 59.7897C90.4367 54.6018 97.9003 51.3528 105.814 50.4657C113.728 49.5786 121.726 51.0945 128.766 54.816C128.843 54.8533 128.921 54.8962 128.995 54.9392C136.407 58.9235 142.358 65.1619 145.99 72.7522C149.622 80.3424 150.745 88.8911 149.198 97.1619C147.65 105.433 143.512 112.997 137.382 118.761C131.252 124.525 123.447 128.189 115.097 129.224C113.46 129.426 111.813 129.528 110.165 129.528ZM110.231 52.4877C104.266 52.4898 98.3888 53.9189 93.0893 56.6556C87.7898 59.3924 83.222 63.3574 79.7674 68.2195C76.3128 73.0816 74.0716 78.6997 73.231 84.6046C72.3903 90.5096 72.9747 96.5299 74.9353 102.163V102.197C74.9897 102.369 75.0527 102.541 75.1157 102.71C78.2344 111.205 84.3204 118.286 92.2508 122.646L92.351 122.7C100.17 126.977 109.26 128.318 117.98 126.481C126.701 124.645 134.478 119.751 139.907 112.684C145.336 105.616 148.061 96.8411 147.588 87.9417C147.115 79.0422 143.477 70.6049 137.329 64.1525C134.591 61.2567 131.405 58.8199 127.893 56.9354L127.85 56.9096L127.758 56.8609L127.715 56.838C122.33 53.9829 116.326 52.4921 110.231 52.4962V52.4877ZM110.231 116.013C109.993 116.013 109.758 116.013 109.52 116.013C102.625 115.919 96.0456 113.102 91.2191 108.176C86.3925 103.25 83.71 96.6149 83.7569 89.7186C83.8038 82.8222 86.5762 76.2243 91.4693 71.3644C96.3624 66.5044 102.979 63.7769 109.876 63.7769C116.772 63.7769 123.389 66.5044 128.282 71.3644C133.175 76.2243 135.947 82.8222 135.994 89.7186C136.041 96.6149 133.359 103.25 128.532 108.176C123.705 113.102 117.127 115.919 110.231 116.013ZM110.199 66.0026C104.093 65.99 98.2168 68.3354 93.7973 72.5496C89.7927 76.3477 87.2288 81.4167 86.5425 86.8931C85.8563 92.3695 87.09 97.9144 90.0336 102.583C92.9772 107.252 97.4485 110.756 102.686 112.497C107.923 114.239 113.602 114.111 118.755 112.135C123.909 110.159 128.218 106.457 130.948 101.66C133.678 96.8638 134.66 91.2689 133.728 85.829C132.795 80.3891 130.006 75.4408 125.834 71.8272C121.662 68.2136 116.367 66.1582 110.849 66.0112C110.637 66.0112 110.424 66.0112 110.208 66.0112L110.199 66.0026Z" fill="#314E5D"/>
<path d="M140.518 121.265L140.516 121.267C137.252 124.362 137.115 129.517 140.21 132.782L163.368 157.202C166.463 160.466 171.619 160.602 174.883 157.507L174.885 157.505C178.149 154.41 178.286 149.254 175.19 145.99L152.033 121.57C148.937 118.306 143.782 118.169 140.518 121.265Z" fill="#724242"/>
<path d="M168.942 160.883H168.687C167.467 160.855 166.265 160.586 165.15 160.091C164.035 159.596 163.03 158.885 162.191 157.999L139.036 133.575C138.197 132.689 137.54 131.647 137.103 130.508C136.666 129.369 136.458 128.155 136.49 126.935C136.522 125.715 136.794 124.514 137.291 123.399C137.788 122.285 138.499 121.279 139.384 120.439C140.27 119.6 141.312 118.943 142.451 118.506C143.59 118.069 144.804 117.86 146.024 117.893C147.244 117.925 148.445 118.197 149.56 118.694C150.674 119.191 151.68 119.902 152.52 120.787L175.678 145.202C177.367 146.993 178.279 149.38 178.214 151.842C178.148 154.303 177.111 156.638 175.328 158.336C173.607 159.977 171.319 160.889 168.942 160.883ZM145.775 120.186C144.408 120.189 143.072 120.592 141.931 121.345C140.791 122.098 139.895 123.169 139.356 124.425C138.816 125.681 138.655 127.067 138.894 128.413C139.132 129.759 139.759 131.006 140.697 132L163.852 156.418C165.133 157.759 166.893 158.54 168.747 158.589C170.601 158.639 172.4 157.953 173.75 156.681C175.092 155.4 175.873 153.641 175.922 151.787C175.971 149.932 175.285 148.134 174.014 146.783L150.859 122.365C150.204 121.675 149.416 121.125 148.542 120.751C147.668 120.376 146.726 120.184 145.775 120.186Z" fill="#314E5D"/>
<g opacity="0.5">
<path d="M148.324 124.318C151.188 126.724 153.402 129.717 156.077 132.306C156.873 133.076 158.082 131.862 157.291 131.092C154.616 128.514 152.402 125.51 149.538 123.104C148.696 122.397 147.476 123.605 148.324 124.318Z" fill="white"/>
<path d="M143.381 123.777C143.84 123.493 144.355 123.313 144.891 123.251C145.428 123.188 145.971 123.245 146.483 123.416C147.545 123.726 148 122.067 146.941 121.758C146.207 121.527 145.433 121.455 144.669 121.546C143.906 121.638 143.171 121.892 142.513 122.291C141.565 122.864 142.427 124.344 143.372 123.774L143.381 123.777Z" fill="white"/>
</g>
<path d="M119.728 58.4676C124.296 59.8567 128.591 62.0791 132.16 65.2495C136.691 69.259 139.772 74.523 141.657 80.2394C142 81.2848 143.662 80.838 143.315 79.7812C141.342 73.7955 138.123 68.2423 133.377 64.0294C129.574 60.6557 125.032 58.3015 120.189 56.8065C119.129 56.4829 118.676 58.1411 119.73 58.4648L119.728 58.4676Z" fill="white"/>
<path d="M103.039 56.8724C106.026 56.4772 109.122 56.6233 112.107 56.9268C113.206 57.0385 113.198 55.3202 112.107 55.2085C109.122 54.9049 106.026 54.7588 103.039 55.154C101.96 55.2972 101.945 57.0185 103.039 56.8724Z" fill="white"/>
</svg>
