<svg width="50" height="40" viewBox="0 0 50 40" fill="none" xmlns="http://www.w3.org/2000/svg">
<path d="M25 22.5C32.7637 22.5 39.0625 17.4609 39.0625 11.25C39.0625 5.03906 32.7637 0 25 0C17.2363 0 10.9375 5.03906 10.9375 11.25C10.9375 17.4609 17.2363 22.5 25 22.5ZM37.5 25H32.1191C29.9512 25.7969 27.5391 26.25 25 26.25C22.4609 26.25 20.0586 25.7969 17.8809 25H12.5C5.5957 25 0 29.4766 0 35V36.25C0 38.3203 2.09961 40 4.6875 40H45.3125C47.9004 40 50 38.3203 50 36.25V35C50 29.4766 44.4043 25 37.5 25Z" fill="white"/>
</svg>
